<?xml version="1.0" encoding="UTF-8"?>
<svg id="Layer_1" xmlns="http://www.w3.org/2000/svg" xmlns:xlink="http://www.w3.org/1999/xlink" version="1.1" viewBox="0 0 537.3 52">
  <!-- Generator: Adobe Illustrator 30.5.1, SVG Export Plug-In . SVG Version: 2.1.4 Build 3)  -->
  <defs>
    <style>
      .st0 {
        fill: none;
      }

      .st1, .st2 {
        fill: #ffffff;
      }

      .st2 {
        fill-rule: evenodd;
      }

      .st3 {
        clip-path: url(#clippath-1);
      }

      .st4 {
        fill: #fff;
      }

      .st5 {
        clip-path: url(#clippath);
      }
    </style>
    <clipPath id="clippath">
      <path class="st0" d="M113.2,27.5h35.9c2.4,0,4.3,1.9,4.3,4.3s-1.9,4.3-4.3,4.3h-35.9c-2.4,0-4.3-1.9-4.3-4.3s1.9-4.3,4.3-4.3Z"/>
    </clipPath>
    <clipPath id="clippath-1">
      <path class="st0" d="M503.5,44.6h30.2c2,0,3.6,1.6,3.6,3.6s-1.6,3.6-3.6,3.6h-30.2c-2,0-3.6-1.6-3.6-3.6s1.6-3.6,3.6-3.6Z"/>
    </clipPath>
  </defs>
  <path class="st1" d="M144.5,48.7c0,.3,0,.6.2.8.2.2.4.3.8.3s.6,0,.8-.3c.2-.2.3-.5.3-.8s0-.6-.3-.8c-.2-.2-.4-.3-.8-.3s-.6,0-.8.3c-.2.2-.3.5-.3.8ZM144.2,48.6c0-.2,0-.3,0-.5,0-.2.1-.3.2-.5,0-.2.2-.4.4-.6l1.1-1.5h.5l-1.5,2h0c0-.1.2-.2.2-.2,0,0,.2,0,.2,0,0,0,.2,0,.3,0,.3,0,.6,0,.8.2.2.1.4.3.5.5.1.2.2.5.2.8s0,.5-.2.8-.3.4-.5.5c-.2.1-.5.2-.8.2-.5,0-.8-.1-1.1-.4-.2-.3-.4-.6-.4-1.1ZM139,49.7l1.5-1.6c.2-.2.4-.4.5-.5.1-.2.2-.3.3-.4,0-.1,0-.3,0-.4,0-.3,0-.5-.3-.6-.2-.1-.4-.2-.7-.2s-.5,0-.7.3c-.2.2-.3.4-.3.7h-.4c0-.3,0-.5.2-.7.1-.2.3-.3.5-.5.2-.1.5-.2.7-.2s.5,0,.7.1c.2,0,.4.2.5.4.1.2.2.4.2.6s0,.3,0,.5c0,.1-.2.3-.3.5-.1.2-.4.4-.6.7l-1.4,1.5v-.2h2.5v.3h-2.8v-.3ZM135.1,49.8c.4,0,.7-.2.9-.5.2-.3.3-.8.3-1.5s0-1.2-.3-1.5c-.2-.3-.5-.5-.9-.5s-.7.2-.9.5c-.2.3-.3.8-.3,1.5s0,1.2.3,1.5c.2.3.5.5.9.5ZM135.1,50.1c-.4,0-.7,0-.9-.2-.2-.2-.4-.4-.5-.8-.1-.3-.2-.8-.2-1.3s0-1,.2-1.3c.1-.3.3-.6.5-.8.2-.2.5-.3.9-.3s.7,0,.9.3c.2.2.4.4.5.8.1.3.2.8.2,1.3s0,1-.2,1.3c-.1.3-.3.6-.5.8-.2.2-.5.2-.9.2ZM128.5,49.7l1.5-1.6c.2-.2.4-.4.5-.5.1-.2.2-.3.3-.4,0-.1,0-.3,0-.4,0-.3,0-.5-.3-.6-.2-.1-.4-.2-.7-.2s-.5,0-.7.3c-.2.2-.3.4-.3.7h-.4c0-.3,0-.5.2-.7.1-.2.3-.3.5-.5.2-.1.5-.2.7-.2s.5,0,.7.1c.2,0,.4.2.5.4.1.2.2.4.2.6s0,.3,0,.5c0,.1-.2.3-.3.5-.1.2-.4.4-.6.7l-1.4,1.5v-.2h2.5v.3h-2.8v-.3ZM123.9,49c-.4,0-.7-.1-.9-.3-.2-.2-.3-.5-.3-.9s.1-.7.3-.9c.2-.2.5-.3.9-.3s.4,0,.5,0c.1,0,.3.2.3.3,0,.1.1.3.2.4h-.4c0-.1,0-.3-.2-.3,0,0-.2-.1-.5-.1s-.5,0-.6.2c-.1.2-.2.4-.2.7s0,.5.2.7c.1.2.4.2.6.2s.4,0,.5-.1c0,0,.2-.2.2-.3h.4c0,.1,0,.3-.2.4,0,.1-.2.2-.3.3-.1,0-.3,0-.5,0ZM123.9,49.8c.2,0,.5,0,.7-.1.2,0,.5-.2.7-.4.2-.2.3-.4.5-.6.1-.3.2-.5.2-.9s0-.6-.2-.9c-.1-.3-.3-.5-.5-.6-.2-.2-.4-.3-.7-.4-.2,0-.5-.1-.7-.1s-.5,0-.7.1c-.2,0-.5.2-.7.4-.2.2-.4.4-.5.6-.1.3-.2.5-.2.9s0,.6.2.9c.1.3.3.5.5.6.2.2.4.3.7.4.2,0,.5.1.7.1ZM123.9,50.1c-.3,0-.6,0-.9-.2-.3-.1-.5-.3-.8-.5-.2-.2-.4-.4-.5-.7-.1-.3-.2-.6-.2-1s0-.7.2-1c.1-.3.3-.5.5-.7.2-.2.5-.4.8-.5.3-.1.6-.2.9-.2s.6,0,.9.2c.3.1.5.3.8.5.2.2.4.4.5.7s.2.6.2,1,0,.7-.2,1c-.1.3-.3.5-.5.7-.2.2-.5.4-.8.5-.3.1-.6.2-.9.2Z"/>
  <path class="st1" d="M340.8,38.7c-.1-1.5-.6-3-1.2-4.3,1.8-.3,3.5-.7,4.7-1.3,1.4,1.6,2.2,3.5,2.4,5.5h-5.9ZM339.5,44.2c.7-1.3,1.1-2.7,1.2-4.3h5.9c-.1,2-1,3.9-2.4,5.5-1.3-.5-2.9-1-4.7-1.3ZM338.9,45.4c1.7.3,3.2.6,4.4,1.1-2.1,2-5.2,3.3-8.6,3.7,1.2-1.1,2.8-2.7,4.1-4.8ZM326.7,45.4c1.3,2.1,2.9,3.7,4.1,4.8-3.4-.4-6.4-1.7-8.6-3.7,1.2-.5,2.7-.8,4.4-1.1h0ZM324.8,39.9c.1,1.5.6,3,1.2,4.3-1.8.3-3.5.7-4.7,1.3-1.4-1.6-2.2-3.5-2.4-5.5h5.9ZM326.1,34.4c-.7,1.3-1.1,2.7-1.2,4.3h-5.9c.1-2,1-3.9,2.4-5.5,1.3.5,2.9,1,4.7,1.3ZM326.7,33.2c-1.7-.3-3.2-.6-4.4-1.1,2.1-2,5.2-3.3,8.6-3.7-1.2,1.1-2.9,2.7-4.1,4.8h0ZM334.7,28.5c3.4.4,6.4,1.7,8.6,3.7-1.2.5-2.7.8-4.4,1.1-1.3-2.1-2.9-3.7-4.1-4.8ZM333.5,33.7v-4.6c1,.9,2.6,2.4,3.9,4.3-1.3.1-2.6.2-3.9.2h0ZM333.5,38.7v-3.8c1.6,0,3.2-.1,4.6-.3.7,1.3,1.2,2.6,1.3,4.1h-5.9ZM333.5,43.7v-3.8h5.9c-.1,1.4-.6,2.8-1.3,4.1-1.5-.2-3-.3-4.6-.3h0ZM333.5,49.5v-4.6c1.4,0,2.7.1,3.9.2-1.3,1.9-2.9,3.4-3.9,4.3h0ZM332.1,44.9v4.6c-1-.9-2.7-2.4-3.9-4.3,1.2-.1,2.6-.2,3.9-.2ZM332.1,39.9v3.8c-1.6,0-3.2.1-4.6.3-.7-1.3-1.2-2.6-1.3-4.1h5.9ZM332.1,34.9v3.8h-5.9c.1-1.4.6-2.8,1.3-4.1,1.5.2,3,.3,4.6.3h0ZM332.1,29.1v4.6c-1.4,0-2.7,0-3.9-.2,1.3-1.9,2.9-3.4,3.9-4.3ZM332.8,27.1c-8.4,0-15.2,5.5-15.2,12.2s6.8,12.2,15.2,12.2,15.2-5.5,15.2-12.2-6.8-12.2-15.2-12.2Z"/>
  <path class="st1" d="M267.8,36.2c.7,0,1.2-.3,1.5-.8.3-.5.4-1.3.4-2.4s-.1-1.8-.4-2.4c-.3-.5-.8-.8-1.5-.8s-1.2.3-1.5.8c-.3.5-.4,1.3-.4,2.4s.1,1.9.4,2.4c.3.5.8.8,1.5.8ZM267.8,36.7c-.6,0-1.1-.1-1.4-.4-.4-.3-.6-.7-.8-1.2-.2-.5-.3-1.2-.3-2.1s0-1.5.3-2.1c.2-.5.4-.9.8-1.2.4-.3.8-.4,1.4-.4s1.1.1,1.4.4c.4.3.6.7.8,1.2.2.5.3,1.2.3,2.1s0,1.5-.3,2.1c-.2.5-.4,1-.8,1.2-.4.3-.8.4-1.4.4ZM258.9,36.1l2.4-2.6c.3-.3.6-.6.8-.9.2-.3.3-.5.4-.7.1-.2.2-.4.2-.7,0-.4-.1-.8-.4-1-.3-.2-.7-.4-1.1-.4s-.9.1-1.2.4c-.3.3-.4.7-.4,1.1h-.6c0-.4,0-.8.3-1.1.2-.3.5-.5.8-.7s.7-.3,1.2-.3.8,0,1.1.2c.3.1.6.4.7.6.2.3.3.6.3,1s0,.5-.1.7c0,.2-.2.5-.5.8-.2.3-.6.7-1,1.2l-2.3,2.5v-.3h4v.5h-4.5v-.5ZM251.5,37.6h-.6l2.3-8.6h.6l-2.3,8.6ZM242.2,29.4h.6v6.6h3.4v.5h-4v-7.1ZM238.9,34.4h-3.3v-.5h3.3v.5ZM237.2,30.2h0l-2.2,6.4h-.6l2.6-7.1h.7l2.5,7.1h-.6l-2.2-6.4ZM232.2,31.5c0-.5-.3-1-.7-1.2-.3-.3-.8-.4-1.4-.4s-1.3.3-1.8.8c-.4.5-.6,1.3-.6,2.3s.2,1.8.6,2.4c.4.5,1,.8,1.8.8s1-.1,1.4-.4c.3-.3.6-.7.7-1.2h.6c-.1.7-.4,1.2-.8,1.6-.5.4-1.1.6-1.8.6s-1.7-.3-2.2-1c-.5-.6-.7-1.6-.7-2.7s.2-2.1.7-2.7c.5-.6,1.2-1,2.2-1s.9,0,1.3.2c.4.2.7.4.9.7.2.3.4.7.5,1.2h-.6ZM222.2,36.6v-.5h2.8v.5h-2.8ZM222.2,30v-.5h2.8v.5h-2.8ZM223.9,36.6h-.6v-7.1h.6v7.1ZM215.1,29.4h5.3v.5h-2.3v6.6h-.6v-6.6h-2.3v-.5ZM211.4,33.3c.5,0,.8,0,1.1-.2.3-.1.4-.3.5-.6.1-.3.2-.6.2-.9s0-.6-.2-.9c-.1-.2-.3-.4-.5-.6-.3-.1-.6-.2-1.1-.2h-1.7v3.3h1.8ZM209,29.4h2.4c.6,0,1,0,1.4.3.3.2.6.4.8.7s.2.7.2,1.2,0,.8-.2,1.2-.4.6-.8.8c-.3.2-.8.3-1.4.3h-1.8v2.8h-.6v-7.1ZM206,33c0-1.1-.2-1.9-.6-2.4-.4-.5-1-.8-1.8-.8s-1.4.3-1.8.8c-.4.5-.6,1.3-.6,2.4s.2,1.9.6,2.4c.4.5,1,.8,1.8.8s1.4-.3,1.8-.8c.4-.5.6-1.3.6-2.4ZM206.7,33c0,1.2-.3,2.1-.8,2.7-.5.6-1.2.9-2.2.9s-1.7-.3-2.2-.9c-.5-.6-.8-1.5-.8-2.7s.3-2.1.8-2.7c.5-.6,1.3-.9,2.2-.9s1.7.3,2.2.9c.5.6.8,1.5.8,2.7Z"/>
  <path class="st1" d="M279.9,43.1h5.3v.5h-2.3v6.6h-.6v-6.6h-2.3v-.5ZM277.9,45.1c0-.5-.3-1-.7-1.2-.3-.3-.8-.4-1.4-.4s-1.3.3-1.8.8c-.4.5-.6,1.3-.6,2.3s.2,1.8.6,2.4c.4.5,1,.8,1.8.8s1-.1,1.4-.4c.3-.3.6-.7.7-1.2h.6c-.1.7-.4,1.2-.8,1.6-.5.4-1.1.6-1.8.6s-1.7-.3-2.2-1c-.5-.6-.7-1.6-.7-2.7s.2-2.1.7-2.7c.5-.6,1.2-1,2.2-1s.9,0,1.3.2c.4.2.7.4.9.7.2.3.4.7.5,1.2h-.6ZM266.9,43.1h4v.5h-3.4v2.8h3.2v.5h-3.2v2.8h3.5v.5h-4.1v-7.1ZM259.8,43.1h5.3v.5h-2.3v6.6h-.6v-6.6h-2.3v-.5ZM255.2,50.2v-.5h2.8v.5h-2.8ZM255.2,43.6v-.5h2.8v.5h-2.8ZM256.9,50.2h-.6v-7.1h.6v7.1ZM247.4,43.1h.6v3.3h4v-3.3h.6v7.1h-.6v-3.3h-4v3.3h-.6v-7.1ZM244.4,45.1c0-.5-.3-1-.7-1.2-.3-.3-.8-.4-1.4-.4s-1.3.3-1.8.8c-.4.5-.6,1.3-.6,2.3s.2,1.8.6,2.4c.4.5,1,.8,1.8.8s1-.1,1.4-.4c.3-.3.6-.7.7-1.2h.6c-.1.7-.4,1.2-.8,1.6s-1.1.6-1.8.6-1.7-.3-2.2-1c-.5-.6-.7-1.6-.7-2.7s.2-2.1.7-2.7c.5-.6,1.2-1,2.2-1s.9,0,1.3.2c.4.2.7.4.9.7.2.3.4.7.5,1.2h-.6ZM234.9,47.3h-1.8v2.9h-.6v-7.1h2.4c.6,0,1,0,1.4.3.3.2.6.4.8.7.2.3.2.7.2,1.1s0,.7-.1.9c0,.3-.2.5-.4.7-.2.2-.4.3-.7.4-.3,0-.7.1-1.2.1ZM234.9,46.7c.5,0,.8,0,1.1-.2.3-.1.4-.3.6-.5.1-.2.2-.5.2-.9s0-.6-.2-.9c-.1-.2-.3-.4-.6-.5-.3-.1-.6-.2-1.1-.2h-1.7v3.1h1.7ZM235.7,46.9l1.9,3.3h-.7l-1.8-3.2h.6ZM229.2,48.1h-3.3v-.5h3.3v.5ZM227.6,43.8h0l-2.2,6.4h-.6l2.6-7.1h.7l2.5,7.1h-.6l-2.2-6.4ZM217.6,51.3h-.6l2.3-8.6h.6l-2.3,8.6ZM207.9,48c0,.5.1,1,.4,1.3.3.3.7.5,1.3.5s1-.2,1.3-.5c.3-.3.4-.8.4-1.3s-.1-1-.4-1.3-.7-.5-1.3-.5-1,.2-1.3.5c-.3.3-.4.7-.4,1.3ZM207.3,48c0-.3,0-.5,0-.8,0-.2.2-.5.3-.8.2-.3.4-.6.6-1l1.8-2.4h.7l-2.4,3.2h0c.1-.2.3-.2.4-.3.1,0,.2-.1.4-.1.1,0,.3,0,.5,0,.5,0,.9,0,1.3.3.3.2.6.4.8.8.2.3.3.7.3,1.2s0,.9-.3,1.2c-.2.3-.4.6-.8.8-.3.2-.8.3-1.3.3-.8,0-1.3-.2-1.7-.6-.4-.4-.6-1-.6-1.7ZM200.7,49.7l2.4-2.6c.3-.3.6-.6.8-.9.2-.3.3-.5.4-.7.1-.2.2-.4.2-.7,0-.4-.1-.8-.4-1-.3-.2-.7-.4-1.1-.4s-.9.1-1.2.4c-.3.3-.4.7-.4,1.1h-.6c0-.4,0-.8.3-1.1.2-.3.5-.5.8-.7s.7-.3,1.2-.3.8,0,1.1.2c.3.1.6.4.7.6.2.3.3.6.3,1s0,.5-.1.7c0,.2-.2.5-.5.8-.2.3-.6.7-1,1.2l-2.3,2.5v-.3h4v.5h-4.5v-.5Z"/>
  <path class="st1" d="M145.7,33.9c-.3,0-.5,0-.7-.1-.2,0-.4-.2-.5-.4-.1-.2-.2-.4-.2-.6h.4c0,.3.1.5.3.6.2.1.4.2.7.2s.6,0,.8-.3c.2-.2.3-.4.3-.7s0-.4-.1-.5c0-.2-.2-.3-.3-.4-.1,0-.3-.1-.6-.1-.2,0-.4,0-.6.1-.2,0-.3.2-.4.3h-.4l.3-2.4h2.2v.3h-1.9l-.2,1.7h0c0-.1.2-.2.4-.3.2,0,.3-.1.5-.1.3,0,.6,0,.8.2.2.1.4.3.5.5.1.2.2.4.2.7s0,.5-.2.7c-.1.2-.3.4-.5.5-.2.1-.5.2-.7.2ZM142.3,31.5c.3,0,.6,0,.7-.2.2-.1.2-.4.2-.6s0-.5-.2-.6c-.2-.1-.4-.2-.7-.2s-.6,0-.7.2c-.2.1-.2.4-.2.6s0,.5.2.6c.2.1.4.2.7.2ZM142.3,33.6c.4,0,.7,0,.9-.2.2-.2.3-.4.3-.7s0-.5-.3-.7c-.2-.2-.5-.2-.8-.2s-.6,0-.8.2c-.2.2-.3.4-.3.7s0,.5.3.7c.2.2.5.2.9.2ZM142.3,33.9c-.5,0-.9-.1-1.1-.3-.2-.2-.4-.5-.4-.9,0-.2,0-.4.1-.5,0-.2.2-.3.3-.4.1-.1.3-.2.5-.2h0c-.2,0-.4-.2-.5-.4-.1-.2-.2-.4-.2-.6s0-.4.1-.6c0-.2.2-.3.4-.4.2,0,.4-.1.7-.1s.5,0,.7.1c.2,0,.3.2.4.4,0,.2.1.4.1.6,0,.2,0,.5-.2.6-.1.2-.3.3-.5.4h0c.2,0,.3.1.5.2s.2.2.3.4c0,.2.1.3.1.5s0,.5-.2.6c-.1.2-.3.3-.5.4s-.5.1-.8.1ZM139,33.9c-.3,0-.5,0-.7-.1-.2,0-.4-.2-.5-.4s-.2-.4-.2-.6h.4c0,.3.1.5.3.6.2.1.4.2.7.2s.6,0,.8-.3c.2-.2.3-.4.3-.7s0-.4-.1-.5c0-.2-.2-.3-.3-.4-.1,0-.3-.1-.6-.1-.2,0-.4,0-.6.1-.2,0-.3.2-.4.3h-.4l.3-2.4h2.2v.3h-1.9l-.2,1.7h0c0-.1.2-.2.4-.3.2,0,.3-.1.5-.1.3,0,.6,0,.8.2.2.1.4.3.5.5.1.2.2.4.2.7s0,.5-.2.7c-.1.2-.3.4-.5.5-.2.1-.5.2-.7.2ZM136.4,29.8l-2.1,2.9v-.2c0,0,2.9,0,2.9,0v.3h-3.2v-.3l2.1-3h.5v4.3h-.4v-4.1h.1ZM132.2,33.6c.4,0,.7-.2.9-.5.2-.3.3-.8.3-1.4s0-1.1-.3-1.4c-.2-.3-.5-.5-.9-.5s-.7.2-.9.5c-.2.3-.3.8-.3,1.4s0,1.1.3,1.4c.2.3.5.5.9.5ZM132.2,33.9c-.4,0-.6,0-.9-.2-.2-.2-.4-.4-.5-.7-.1-.3-.2-.7-.2-1.2s0-.9.2-1.2c.1-.3.3-.6.5-.7.2-.2.5-.2.9-.2s.6,0,.9.2c.2.2.4.4.5.7.1.3.2.7.2,1.2s0,.9-.2,1.2c-.1.3-.3.6-.5.7-.2.2-.5.2-.9.2ZM128.9,33.6c.4,0,.7-.2.9-.5.2-.3.3-.8.3-1.4s0-1.1-.3-1.4c-.2-.3-.5-.5-.9-.5s-.7.2-.9.5c-.2.3-.3.8-.3,1.4s0,1.1.3,1.4c.2.3.5.5.9.5ZM128.9,33.9c-.4,0-.6,0-.9-.2-.2-.2-.4-.4-.5-.7-.1-.3-.2-.7-.2-1.2s0-.9.2-1.2c.1-.3.3-.6.5-.7.2-.2.5-.2.9-.2s.6,0,.9.2c.2.2.4.4.5.7.1.3.2.7.2,1.2s0,.9-.2,1.2c-.1.3-.3.6-.5.7-.2.2-.5.2-.9.2ZM127,32.1h-1.6v-.3h1.6v.3ZM123.4,32.1h-1.1v1.8h-.4v-4.3h1.4c.3,0,.6,0,.8.2.2,0,.4.2.5.4,0,.2.1.4.1.7s0,.4,0,.6c0,.2-.1.3-.2.4-.1.1-.3.2-.4.2-.2,0-.4,0-.7,0ZM123.4,31.7c.3,0,.5,0,.7-.1.2,0,.3-.2.3-.3,0-.1,0-.3,0-.5s0-.4,0-.5-.2-.2-.3-.3c-.2,0-.4-.1-.7-.1h-1v1.9h1ZM123.9,31.9l1.1,2h-.4l-1.1-1.9h.4ZM119.9,33.9c-.3,0-.5,0-.7-.1-.2,0-.4-.2-.5-.4-.1-.2-.2-.4-.2-.7h.4c0,.2,0,.3.1.5,0,.1.2.2.4.3.1,0,.3,0,.5,0,.3,0,.6,0,.8-.3.2-.2.3-.4.3-.7s0-.6-.3-.7c-.2-.2-.4-.3-.8-.3h-.5v-.3s1.5-1.6,1.5-1.6h0c0,.1-2.2.1-2.2.1v-.3h2.6v.3l-1.4,1.5h0c.3,0,.5,0,.7,0,.2,0,.3.2.5.3.1.1.2.3.2.4,0,.1,0,.3,0,.4,0,.3,0,.5-.2.7-.1.2-.3.3-.5.4-.2.1-.5.2-.8.2ZM117.3,29.8l-2.1,2.9v-.2c0,0,2.9,0,2.9,0v.3h-3.2v-.3l2.1-3h.5v4.3h-.4v-4.1h.1Z"/>
  <g class="st5">
    <path class="st1" d="M113.2,27.5v-.2c-2.5,0-4.5,2-4.5,4.5h.4c0-2.3,1.8-4.1,4.1-4.1v-.2ZM149.1,27.5v.2c2.3,0,4.1,1.8,4.1,4.1h.4c0-2.5-2-4.5-4.5-4.5v.2ZM153.4,31.8h-.2c0,2.3-1.8,4.1-4.1,4.1v.4c2.5,0,4.5-2,4.5-4.5h-.2ZM113.2,36.1v-.2c-2.3,0-4.1-1.8-4.1-4.1h-.4c0,2.5,2,4.5,4.5,4.5v-.2ZM149.1,36.1v-.2h-35.9v.4h35.9v-.2ZM113.2,27.5v.2h35.9v-.4h-35.9v.2Z"/>
  </g>
  <path class="st1" d="M329.5,39.3c0,6.1-5.4,11.1-12,11.1s-12-5-12-11.1,5.4-11.1,12-11.1,12,5,12,11.1ZM317.5,27.1c-7.3,0-13.2,5.5-13.2,12.2s5.9,12.2,13.2,12.2,13.2-5.5,13.2-12.2-5.9-12.2-13.2-12.2Z"/>
  <path class="st1" d="M2.1,26.3l-.3.3,5.6,5.6.3-.3.3-.3-5.6-5.6-.3.3ZM2.1,26.3v.4h4.2v-.8H2.1v.4ZM2.1,30.5h.4v-4.2h-.8v4.2h.4ZM7.4,32.1c.2.2.4.2.6,0s.2-.4,0-.6l-.3.3-.3.3ZM2.1,26.3v-.4h-.4v.4h.4Z"/>
  <path class="st1" d="M2.1,37.4l-.3-.3,5.6-5.6.3.3.3.3-5.6,5.6-.3-.3ZM2.1,37.4v-.4h4.2v.8H2.1v-.4ZM2.1,33.3h.4v4.2h-.8v-4.2h.4ZM7.4,31.6c.2-.2.4-.2.6,0,.2.2.2.4,0,.6l-.3-.3-.3-.3ZM2.1,37.4v.4h-.4v-.4h.4Z"/>
  <path class="st1" d="M13.2,26.3l.3.3-5.6,5.6-.3-.3-.3-.3,5.6-5.6.3.3ZM13.2,26.3v.4h-4.2v-.8h4.2v.4ZM13.2,30.5h-.4v-4.2h.8v4.2h-.4ZM7.9,32.1c-.2.2-.4.2-.6,0s-.2-.4,0-.6l.3.3.3.3ZM13.2,26.3v-.4h.4v.4h-.4Z"/>
  <path class="st1" d="M13.2,37.4l.3-.3-5.6-5.6-.3.3-.3.3,5.6,5.6.3-.3ZM13.2,37.4v-.4h-4.2v.8h4.2v-.4ZM13.2,33.3h-.4v4.2h.8v-4.2h-.4ZM7.9,31.6c-.2-.2-.4-.2-.6,0-.2.2-.2.4,0,.6l.3-.3.3-.3ZM13.2,37.4v.4h.4v-.4h-.4Z"/>
  <path class="st2" d="M30.7,35.7v1.7c-.2,0-.4,0-.6,0-3.1,0-5.6-2.5-5.6-5.6s2.5-5.6,5.6-5.6.4,0,.6,0v1.7c-.2,0-.4,0-.6,0-2.2,0-4,1.8-4,4s1.8,4,4,4,.4,0,.6,0h0Z"/>
  <path class="st2" d="M33.1,30.9h3.2v1.7h-3.2c.4,1.8,2,3.1,3.9,3.1s.4,0,.6,0v1.7c-.2,0-.4,0-.6,0-3.1,0-5.6-2.5-5.6-5.6s2.5-5.6,5.6-5.6.4,0,.6,0v1.7c-.2,0-.4,0-.6,0-1.9,0-3.5,1.3-3.9,3.1Z"/>
  <path class="st1" d="M61.1,31.3h16c.2,0,.4.2.4.4s-.2.4-.4.4h-16c-2.2,0-4.1,1.8-4.1,4v2.1c0,.2-.2.4-.4.4s-.4-.2-.4-.4v-2.1c0-2.2-1.8-4-4.1-4h-3.8c-.2,0-.4-.2-.4-.4s.2-.4.4-.4h3.8c2.2,0,4.1-1.8,4.1-4v-2.1c0-.2.2-.4.4-.4s.4.2.4.4v2.1c0,2.2,1.8,4,4.1,4Z"/>
  <path class="st1" d="M92.1,49.7c.4,0,.8,0,1-.2.2-.2.4-.4.5-.7.1-.3.2-.6.2-1s0-.7-.2-1c-.1-.3-.3-.5-.5-.7-.2-.2-.6-.2-1-.2h-1v3.8h.9ZM90.8,50v-4.5h1.4c.7,0,1.1.2,1.5.6.3.4.5.9.5,1.7s-.2,1.3-.5,1.7c-.3.4-.8.6-1.5.6h-1.3ZM85.7,45.6h2.5v.3h-2.1v1.7h2v.3h-2v1.8h2.2v.3h-2.6v-4.5ZM81.5,49.6h0l1.5-4h.4l-1.6,4.5h-.5l-1.6-4.5h.4l1.5,4ZM76.1,48.2h-1.1v1.8h-.4v-4.5h1.5c.4,0,.7,0,.9.2.2.1.4.2.5.4.1.2.2.4.2.7s0,.4,0,.6c0,.2-.1.3-.2.4-.1.1-.3.2-.5.2-.2,0-.4,0-.7,0ZM76,47.9c.3,0,.5,0,.7-.1.2,0,.3-.2.3-.3s.1-.3.1-.5,0-.4-.1-.5-.2-.3-.3-.3c-.2,0-.4-.1-.7-.1h-1.1v2h1.1ZM76.5,48l1.2,2.1h-.4l-1.1-2h.4ZM69.4,45.6h2.5v.3h-2.1v1.7h2v.3h-2v1.8h2.2v.3h-2.6v-4.5ZM66.6,46.5c0-.3-.2-.4-.3-.5-.2-.1-.5-.2-.8-.2s-.6,0-.8.2c-.2.1-.3.3-.3.6s0,.3,0,.4c0,.1.1.2.2.2,0,0,.2.1.3.1.1,0,.2,0,.3,0h.5c.1.2.3.2.4.3.1,0,.3.1.4.2.1,0,.2.2.3.3,0,.1.1.3.1.5s0,.5-.2.6-.3.3-.5.5c-.2.1-.5.2-.9.2s-.9,0-1.1-.3c-.3-.2-.4-.5-.4-.8h.4c0,.2,0,.4.2.5.1.1.2.2.4.2.2,0,.4,0,.6,0,.4,0,.7,0,.9-.2.2-.2.3-.4.3-.7s0-.3-.1-.5c0-.1-.2-.2-.4-.3-.1,0-.3-.1-.5-.2l-.6-.2c-.3,0-.6-.2-.8-.4-.2-.2-.3-.4-.3-.7s0-.5.2-.6c.1-.2.3-.3.5-.4.2,0,.5-.1.8-.1s.5,0,.8.1c.2,0,.4.2.5.4.1.2.2.3.2.5h-.4ZM59.1,45.6h2.5v.3h-2.1v1.7h2v.3h-2v1.8h2.2v.3h-2.6v-4.5ZM55.1,48.2h-1.1v1.8h-.4v-4.5h1.5c.4,0,.7,0,.9.2.2.1.4.2.5.4.1.2.2.4.2.7s0,.4,0,.6c0,.2-.1.3-.2.4-.1.1-.3.2-.5.2-.2,0-.4,0-.7,0ZM55.1,47.9c.3,0,.5,0,.7-.1s.3-.2.3-.3c0-.1.1-.3.1-.5s0-.4-.1-.5c0-.1-.2-.3-.3-.3-.2,0-.4-.1-.7-.1h-1.1v2h1.1ZM55.6,48l1.2,2.1h-.4l-1.1-2h.4ZM47.6,46.5c0-.3-.2-.4-.3-.5-.2-.1-.5-.2-.8-.2s-.6,0-.8.2c-.2.1-.3.3-.3.6s0,.3,0,.4c0,.1.1.2.2.2,0,0,.2.1.3.1.1,0,.2,0,.3,0h.5c.1.2.3.2.4.3.1,0,.3.1.4.2.1,0,.2.2.3.3,0,.1.1.3.1.5s0,.5-.2.6-.3.3-.5.5c-.2.1-.5.2-.9.2s-.9,0-1.1-.3c-.3-.2-.4-.5-.4-.8h.4c0,.2,0,.4.2.5.1.1.2.2.4.2.2,0,.4,0,.6,0,.4,0,.7,0,.9-.2.2-.2.3-.4.3-.7s0-.3-.1-.5c0-.1-.2-.2-.4-.3-.1,0-.3-.1-.5-.2l-.6-.2c-.3,0-.6-.2-.8-.4-.2-.2-.3-.4-.3-.7s0-.5.2-.6c.1-.2.3-.3.5-.4.2,0,.5-.1.8-.1s.5,0,.8.1c.2,0,.4.2.5.4.1.2.2.3.2.5h-.4ZM39.8,45.6h3.3v.3h-1.5v4.2h-.4v-4.2h-1.5v-.3ZM34.4,45.6h.4v2.1h2.5v-2.1h.4v4.5h-.4v-2.1h-2.5v2.1h-.4v-4.5ZM31.5,48.1h-1.3v-.3h1.7v.5c0,.3,0,.6-.2.9-.1.3-.3.5-.6.7-.3.2-.6.2-1,.2-.6,0-1.1-.2-1.4-.6-.3-.4-.5-1-.5-1.7s.2-1.3.5-1.7c.3-.4.8-.6,1.4-.6s.6,0,.8.2c.2,0,.4.2.6.4.2.2.3.5.3.8h-.4c0-.4-.2-.6-.5-.8-.2-.2-.5-.2-.9-.2s-.9.2-1.1.5-.4.8-.4,1.5.1,1.2.4,1.5.6.5,1.1.5.5,0,.6-.1c.2,0,.3-.2.4-.3.1-.1.2-.3.2-.4,0-.1,0-.3,0-.4,0-.1,0-.3,0-.4ZM24.1,50v-.3h1.8v.3h-1.8ZM24.1,45.9v-.3h1.8v.3h-1.8ZM25.1,50h-.4v-4.5h.4v4.5ZM20.1,48.2h-1.1v1.8h-.4v-4.5h1.5c.4,0,.7,0,.9.2.2.1.4.2.5.4.1.2.2.4.2.7s0,.4,0,.6c0,.2-.1.3-.2.4-.1.1-.3.2-.5.2-.2,0-.4,0-.7,0ZM20.1,47.9c.3,0,.5,0,.7-.1s.3-.2.3-.3c0-.1.1-.3.1-.5s0-.4-.1-.5c0-.1-.2-.3-.3-.3-.2,0-.4-.1-.7-.1h-1.1v2h1.1ZM20.6,48l1.2,2.1h-.4l-1.1-2h.4ZM10.6,45.6h.4v4.2h2.1v.3h-2.5v-4.5ZM5.9,45.6h.4v4.2h2.1v.3h-2.5v-4.5ZM2.8,48.7H.8v-.3h2v.3ZM1.8,46.1h0l-1.4,4h-.4l1.6-4.5h.4l1.6,4.5h-.4l-1.4-4Z"/>
  <path class="st1" d="M463.7,33h0c1.6,0,2.9,1.3,2.9,2.8h0c0-1.6-1.3-2.9-3-2.9h0ZM460.7,35.8h0c0-1.5,1.3-2.8,2.9-2.8h0c-1.7,0-3,1.2-3,2.8h0ZM463.7,38.6h0c-1.6,0-2.9-1.3-2.9-2.8h0c0,1.6,1.3,2.9,3,2.9h0ZM466.7,35.8h0c0,1.5-1.3,2.8-2.9,2.8h0c1.7,0,3-1.2,3-2.8h0ZM458.6,30.2h0c1.6,0,2.9,1.3,2.9,2.8h0c0-1.6-1.3-2.9-3-2.9h0ZM455.6,33h0c0-1.5,1.3-2.8,2.9-2.8h0c-1.7,0-3,1.2-3,2.8h0ZM458.6,35.8h0c-1.6,0-2.9-1.3-2.9-2.8h0c0,1.6,1.3,2.9,3,2.9h0ZM461.5,33h0c0,1.5-1.3,2.8-2.9,2.8h0c1.7,0,3-1.2,3-2.8h0ZM458.6,33h0c1.6,0,2.9,1.3,2.9,2.8h0c0-1.6-1.3-2.9-3-2.9h0ZM455.6,35.8h0c0-1.5,1.3-2.8,2.9-2.8h0c-1.7,0-3,1.2-3,2.8h0ZM458.6,38.6h0c-1.6,0-2.9-1.3-2.9-2.8h0c0,1.6,1.3,2.9,3,2.9h0ZM461.5,35.8h0c0,1.5-1.3,2.8-2.9,2.8h0c1.7,0,3-1.2,3-2.8h0ZM463.7,30.2h0c1.6,0,2.9,1.3,2.9,2.8h0c0-1.6-1.3-2.9-3-2.9h0ZM460.7,33h0c0-1.5,1.3-2.8,2.9-2.8h0c-1.7,0-3,1.2-3,2.8h0ZM463.7,35.8h0c-1.6,0-2.9-1.3-2.9-2.8h0c0,1.6,1.3,2.9,3,2.9h0ZM466.7,33h0c0,1.5-1.3,2.8-2.9,2.8h0c1.7,0,3-1.2,3-2.8h0ZM461.1,28.8h0c1.6,0,2.9,1.3,2.9,2.8h0c0-1.6-1.3-2.9-3-2.9h0ZM458.2,31.6h0c0-1.5,1.3-2.8,2.9-2.8h0c-1.7,0-3,1.2-3,2.8h0ZM461.1,34.4h0c-1.6,0-2.9-1.3-2.9-2.8h0c0,1.6,1.3,2.9,3,2.9h0ZM464.1,31.6h0c0,1.5-1.3,2.8-2.9,2.8h0c1.7,0,3-1.2,3-2.8h0ZM461.1,34.4h0c1.6,0,2.9,1.3,2.9,2.8h0c0-1.6-1.3-2.9-3-2.9h0ZM458.2,37.2h0c0-1.5,1.3-2.8,2.9-2.8h0c-1.7,0-3,1.2-3,2.8h0ZM461.1,40h0c-1.6,0-2.9-1.3-2.9-2.8h0c0,1.6,1.3,2.9,3,2.9h0ZM464.1,37.2h0c0,1.5-1.3,2.8-2.9,2.8h0c1.7,0,3-1.2,3-2.8h0Z"/>
  <g>
    <path class="st4" d="M410.9,11.3V.1h2.2v11.2h-2.2Z"/>
    <path class="st4" d="M430.2,0l-4.9,8.2c-1.5,2.5-2.5,3-6.2,3h-4.3V0h2.2v9.8c3.3,0,4.4.1,6.6-3.3l3.8-6.5h2.8Z"/>
    <path class="st4" d="M444.8,5.7c0,3.2-1.2,5.7-7.5,5.7h-.3c-6.3,0-7.5-2.5-7.5-5.7s1.2-5.7,7.5-5.7h.3c6.3,0,7.5,2.5,7.5,5.7ZM442.2,5.7c0-4.1-2.2-4.3-4.5-4.3h-1.1c-2.3,0-4.5.2-4.5,4.3s2.3,4.4,4.5,4.4h1.1c2.3,0,4.5-.4,4.5-4.4Z"/>
    <path class="st4" d="M459.9,11.3c-1,0-.8,0-1.4,0-1.1,0-2.3-.7-3.6-2.2l-.7-.8h-6.1v3h-2.3V0h9c3.6,0,4.5,1.4,4.4,4.1,0,1.4-.4,3.2-2.6,3.8l3.4,3.2ZM457,4.2c0-1.7-.3-2.7-2.4-2.7h-6.5v5.1h6.5c1.2,0,2.4-.4,2.4-2.3Z"/>
    <path class="st4" d="M472.3,0l-5.7,7.2v4h-2.2v-3.9l-5.9-7.3h2.5l4.5,5.6,4.2-5.6h2.5Z"/>
    <g>
      <path class="st4" d="M393.7,11.3l5-8.2c1.5-2.5,2.5-3.1,6.3-3.1h4.4v11.3h-2.3V2c-4.2,0-5-.5-7,2.8l-3.9,6.5h-2.5Z"/>
      <path class="st4" d="M404.3,9v2.3h-4.1l.4-.8c.3-.5.5-1,1-1.2,0,0,.5-.3,1.4-.3h1.4Z"/>
    </g>
  </g>
  <polygon class="st1" points="394.3 18.8 394.3 18.8 421.8 18.8 422.4 18.8 450 18.8 450.5 18.8 478.1 18.8 478.6 18.8 506.2 18.8 506.7 18.8 534.3 18.8 534.8 18.8 534.8 18.8 534.8 25.2 534.3 25.2 534.3 19.4 520.8 19.4 520.8 22 520.5 22 520.5 19.4 506.7 19.4 506.7 25.2 506.2 25.2 506.2 19.4 492.7 19.4 492.7 22 492.4 22 492.4 19.4 478.6 19.4 478.6 25.2 478.1 25.2 478.1 19.4 464.6 19.4 464.6 22 464.3 22 464.3 19.4 450.5 19.4 450.5 25.2 450 25.2 450 19.4 436.5 19.4 436.5 22 436.2 22 436.2 19.4 422.4 19.4 422.4 25.2 421.8 25.2 421.8 19.4 408.3 19.4 408.3 22 408.1 22 408.1 19.4 394.3 19.4 394.3 25.2 393.7 25.2 393.7 18.8 394.3 18.8"/>
  <path class="st1" d="M526.8,5.5c0-.2-.1-.4-.2-.5-.1,0-.3-.1-.5-.1s-.4,0-.5.1c-.1,0-.2.2-.2.3s0,.2.1.3c0,0,.3.2.5.2l.7.2c.5.1.9.3,1.2.6s.4.6.4.9-.2.9-.6,1.2c-.4.3-.9.4-1.6.4s-1.2-.1-1.6-.4c-.4-.3-.6-.7-.6-1.2h1.4c0,.2,0,.4.2.5.1,0,.3.1.6.1s.6,0,.7-.1c.1,0,.2-.2.2-.4s0-.3-.1-.4c0,0-.2-.2-.5-.2l-.7-.2c-.5-.1-.9-.3-1.2-.6-.3-.2-.4-.6-.4-.9s.2-.8.6-1.1c.4-.3.9-.4,1.5-.4s1.1.1,1.5.4c.4.3.5.7.6,1.2h-1.3ZM520.9,8.1c.4,0,.7-.1.9-.4.2-.3.3-.7.3-1.2s-.1-1-.3-1.2c-.2-.3-.5-.4-.9-.4s-.7.1-.9.4c-.2.3-.3.7-.3,1.2s0,1,.3,1.2c.2.3.5.4.9.4ZM521.3,9.1c-.5,0-.9-.1-1.2-.3-.3-.2-.5-.6-.7-.9-.1-.4-.2-.9-.2-1.4s0-1,.2-1.4.4-.7.7-1c.3-.2.7-.4,1.2-.4s.8,0,1.1.3c.3.2.6.5.8.9.2.4.3.9.3,1.5s-.2,1.5-.6,2c-.4.4-.9.7-1.6.7ZM519.6,1.9v7.1h-1.3V1.9h1.3ZM514,7.5c0,.2,0,.4.2.5.1.1.3.2.6.2s.7,0,.9-.3c.2-.2.3-.4.3-.8v-.3h-1.1c-.3,0-.5,0-.7.2-.1.1-.2.3-.2.5ZM517.7,9h-.8c-.3,0-.5-.1-.7-.3-.2-.2-.3-.5-.3-.8h.3c-.1.4-.3.6-.6.9-.3.2-.6.3-1.1.3s-.7,0-1-.2c-.3-.1-.5-.3-.7-.5-.2-.2-.2-.5-.2-.9s0-.6.2-.8c.1-.2.3-.4.5-.5.2-.1.4-.2.7-.2.3,0,.5,0,.7,0h1.2v-.3c0-.3,0-.5-.2-.6-.1-.1-.3-.2-.6-.2s-.5,0-.7.2c-.1.1-.2.3-.2.5h-1.3c0-.4.1-.7.3-.9.2-.3.5-.4.8-.6.3-.1.7-.2,1.1-.2s.4,0,.7,0c.2,0,.5.1.7.3.2.1.4.3.5.6.1.2.2.6.2.9v2.3h.5v1ZM511.9,9h-1.3V1.9h1.3v7.1ZM504.2,9h-1.3V3.9h1.3v.6c.1-.2.3-.4.5-.5.2-.1.5-.2.8-.2.6,0,1,.2,1.4.5.4.3.5.9.5,1.6v3.1h-1.3v-3.1c0-.4,0-.6-.2-.8-.1-.2-.4-.2-.7-.2s-.4,0-.6.1c-.2,0-.3.2-.3.4,0,.2-.1.4-.1.7v3ZM501.8,8.7c0,.8-.1,1.5-.5,1.9-.4.4-1,.7-1.8.7s-1,0-1.4-.2c-.3-.1-.6-.3-.8-.6-.2-.3-.2-.6-.3-.9h1.3c0,.2,0,.3.1.4,0,.1.2.2.3.2.2,0,.4,0,.7,0s.5,0,.7-.1c.2,0,.3-.3.3-.5,0-.2,0-.5,0-.9h1.3ZM500.5,3.9h1.3v4.8h-1.3v-3.9h0v-1ZM499.2,7.9c.4,0,.7-.1.9-.4.2-.3.3-.6.3-1.1s-.1-.9-.3-1.1-.5-.4-.9-.4-.7.1-.9.4c-.2.3-.3.6-.3,1.1s.1.9.3,1.1c.2.3.5.4.9.4ZM498.8,8.9c-.6,0-1.2-.2-1.6-.7-.4-.4-.6-1.1-.6-1.9s0-1.1.3-1.5c.2-.4.5-.7.8-.8.3-.2.7-.3,1.1-.3s.9.1,1.2.4c.3.2.5.5.7.9.1.4.2.8.2,1.3s0,.9-.2,1.3c-.1.4-.4.7-.7.9-.3.2-.7.3-1.2.3ZM494.6,1.9h1.4v1.4h-1.4v-1.4ZM495.9,3.9v5.1h-1.3V3.9h1.3ZM492.5,5.5c0-.2-.1-.4-.2-.5-.1,0-.3-.1-.5-.1s-.4,0-.5.1c-.1,0-.2.2-.2.3s0,.2.1.3c0,0,.3.2.5.2l.7.2c.5.1.9.3,1.2.6s.4.6.4.9-.2.9-.6,1.2c-.4.3-.9.4-1.6.4s-1.2-.1-1.6-.4c-.4-.3-.6-.7-.6-1.2h1.4c0,.2,0,.4.2.5.1,0,.3.1.6.1s.6,0,.7-.1c.1,0,.2-.2.2-.4s0-.3-.1-.4c0,0-.2-.2-.5-.2l-.7-.2c-.5-.1-.9-.3-1.2-.6-.3-.2-.4-.6-.4-.9s.2-.8.6-1.1c.4-.3.9-.4,1.5-.4s1.1.1,1.5.4c.4.3.5.7.6,1.2h-1.3ZM485,6h2.8c0-.3-.1-.6-.3-.8-.2-.2-.4-.3-.8-.3s-.7.1-.9.4c-.2.3-.3.7-.3,1.3s0,1,.3,1.3c.2.2.5.4,1,.4s.6,0,.7-.1c.1,0,.2-.2.2-.4h1.4c0,.3-.1.6-.3.8-.2.2-.4.4-.8.5-.3.1-.7.2-1.2.2-.8,0-1.5-.2-1.9-.7-.4-.5-.7-1.1-.7-2s.2-1.5.7-2c.4-.5,1.1-.7,1.8-.7s.9.1,1.3.3c.4.2.6.5.8.9.2.4.3.9.3,1.5v.4h-4.2v-.9ZM480.9,8.1c.4,0,.7-.1.9-.4.2-.3.3-.7.3-1.2s-.1-1-.3-1.2c-.2-.3-.5-.4-.9-.4s-.7.1-.9.4c-.2.3-.3.7-.3,1.2s.1,1,.3,1.2c.2.3.5.4.9.4ZM480.5,9.1c-.6,0-1.2-.2-1.6-.7-.4-.4-.6-1.1-.6-2s0-1.1.3-1.5c.2-.4.5-.7.8-.9.3-.2.7-.3,1.1-.3s.9.1,1.2.4.5.6.7,1,.2.9.2,1.4,0,1-.2,1.4c-.1.4-.4.7-.7.9-.3.2-.7.3-1.2.3ZM482.1,1.9h1.3v7.1h-1.3V1.9Z"/>
  <path class="st1" d="M416.8,32.9h-1.8v1.8c-.1,0-.1,0-.1,0,.1-.1.2-.2.4-.3.1,0,.3,0,.5,0,.4,0,.6.1.8.3.2.2.3.5.3.9s0,.4,0,.5c0,.2-.1.3-.2.4-.1.1-.2.2-.4.2-.2,0-.3,0-.5,0-.3,0-.5,0-.7-.2-.2-.1-.4-.3-.5-.5h.2c.1,0,.3.2.4.3.2,0,.4.1.6.1s.6,0,.7-.3c.2-.2.3-.4.3-.7h0c0-.4,0-.7-.2-.8-.2-.2-.4-.3-.7-.3s-.2,0-.3,0c0,0-.2,0-.2,0,0,0-.1,0-.2.1,0,0-.1.1-.2.2h-.2s.1-2.2.1-2.2h2v.2ZM411.7,36.5c.4,0,.6-.1.8-.4.2-.3.3-.7.3-1.2v-.4c0-.5,0-1-.3-1.2-.2-.3-.5-.4-.8-.4s-.6.1-.8.4c-.2.3-.3.7-.3,1.2v.4c0,.5,0,1,.3,1.2.2.3.5.4.8.4ZM411.7,36.7c-.4,0-.8-.2-1-.5-.2-.3-.3-.8-.3-1.6s.1-1.2.3-1.6c.2-.3.6-.5,1-.5s.8.2,1,.5c.2.3.3.8.3,1.6s-.1,1.2-.3,1.6c-.2.3-.6.5-1,.5ZM407.8,36.5c.4,0,.6-.1.8-.4.2-.3.3-.7.3-1.2v-.4c0-.5,0-1-.3-1.2-.2-.3-.5-.4-.8-.4s-.6.1-.8.4c-.2.3-.3.7-.3,1.2v.4c0,.5,0,1,.3,1.2.2.3.5.4.8.4ZM407.8,36.7c-.4,0-.8-.2-1-.5-.2-.3-.3-.8-.3-1.6s.1-1.2.3-1.6c.2-.3.6-.5,1-.5s.8.2,1,.5c.2.3.3.8.3,1.6s-.1,1.2-.3,1.6c-.2.3-.6.5-1,.5ZM403.8,36.5c.4,0,.6-.1.8-.4.2-.3.3-.7.3-1.2v-.4c0-.5,0-1-.3-1.2-.2-.3-.5-.4-.8-.4s-.6.1-.8.4c-.2.3-.3.7-.3,1.2v.4c0,.5,0,1,.3,1.2.2.3.5.4.8.4ZM403.8,36.7c-.4,0-.8-.2-1-.5-.2-.3-.3-.8-.3-1.6s.1-1.2.3-1.6c.2-.3.6-.5,1-.5s.8.2,1,.5c.2.3.3.8.3,1.6s-.1,1.2-.3,1.6c-.2.3-.6.5-1,.5Z"/>
  <polygon class="st1" points="394.2 32.6 396.8 32.6 396.8 33.3 394.9 33.3 394.9 34.3 396.6 34.3 396.6 34.9 394.9 34.9 394.9 36 396.8 36 396.8 36.6 394.2 36.6 394.2 32.6"/>
  <path class="st1" d="M427.5,36c.3,0,.4-.1.6-.3.1-.2.2-.6.2-1.1s0-.9-.2-1.1c-.1-.2-.3-.3-.6-.3s-.4.1-.6.3c-.1.2-.2.6-.2,1.1s0,.9.2,1.1c.1.2.3.3.6.3ZM427.5,36.7c-.4,0-.7,0-.9-.2-.2-.2-.4-.4-.5-.7,0-.3-.1-.7-.1-1.1s0-.8.2-1.1.3-.5.5-.7c.2-.2.5-.2.9-.2s.6,0,.9.2c.2.2.4.4.5.7s.2.7.2,1.1,0,.8-.2,1.1c-.1.3-.3.5-.5.7-.2.2-.5.2-.9.2ZM423,36.1l1.3-1.4c.1-.1.2-.3.3-.4,0-.1.2-.2.2-.3,0,0,0-.2,0-.3,0-.2,0-.4-.2-.4,0,0-.2-.1-.4-.1s-.3,0-.4.1c0,0-.1.2-.2.5h-.8c0-.2,0-.5.2-.7.1-.2.3-.3.5-.4s.4-.2.7-.2.5,0,.7.2c.2.1.4.2.5.4.1.2.2.4.2.6s0,.3,0,.5c0,.1-.2.3-.3.4-.1.2-.3.3-.5.6l-.9.9v-.2c0,0,1.9,0,1.9,0v.7h-2.8v-.5Z"/>
  <path class="st1" d="M501.1,39.3h8.3c.3,0,.6-.3.6-.6v-2.4h-4.9l2.3,2.1h-1.1l-2.7-2.5,2.4-2.2h-5.5v5c0,.3.3.6.6.6h0ZM509.4,29.9h-8.3c-.3,0-.6.3-.6.6v2.5h5.5l-2.3-2.1h1.1l2.7,2.5-2.4,2.2h4.8v-5.1c0-.3-.3-.6-.6-.6ZM501.1,29.1h8.3c.7,0,1.3.6,1.3,1.3v8.3c0,.7-.6,1.3-1.3,1.3h-8.3c-.7,0-1.3-.6-1.3-1.3v-8.3c0-.7.6-1.3,1.3-1.3h0Z"/>
  <path class="st1" d="M487.1,34.4c0-.7-.3-1.3-.6-1.9.8-.1,1.6-.3,2.1-.6.6.7,1,1.6,1.1,2.5h-2.6ZM486.6,36.9c.3-.6.5-1.2.6-1.9h2.6c0,.9-.5,1.8-1.1,2.5-.6-.2-1.3-.4-2.1-.6ZM486.3,37.5c.8.1,1.5.3,2,.5-1,.9-2.3,1.5-3.9,1.7.5-.5,1.3-1.2,1.9-2.2ZM480.8,37.5c.6.9,1.3,1.7,1.9,2.2-1.5-.2-2.9-.8-3.9-1.7.5-.2,1.2-.4,2-.5h0ZM480,35c0,.7.3,1.3.6,1.9-.8.1-1.6.3-2.1.6-.6-.7-1-1.6-1.1-2.5h2.6ZM480.5,32.5c-.3.6-.5,1.2-.6,1.9h-2.6c0-.9.5-1.8,1.1-2.5.6.2,1.3.4,2.1.6ZM480.8,32c-.8-.1-1.5-.3-2-.5,1-.9,2.3-1.5,3.9-1.7-.5.5-1.3,1.2-1.9,2.2h0ZM484.4,29.8c1.5.2,2.9.8,3.9,1.7-.5.2-1.2.4-2,.5-.6-.9-1.3-1.7-1.9-2.2ZM483.8,32.1v-2.1c.5.4,1.2,1.1,1.8,2-.6,0-1.2,0-1.8.1h0ZM483.8,34.4v-1.7c.7,0,1.4,0,2.1-.1.3.6.5,1.2.6,1.8h-2.7ZM483.8,36.7v-1.7h2.7c0,.7-.3,1.3-.6,1.8-.7,0-1.4-.1-2.1-.1h0ZM483.8,39.3v-2.1c.6,0,1.2,0,1.8.1-.6.9-1.3,1.6-1.8,2h0ZM483.2,37.3v2.1c-.5-.4-1.2-1.1-1.8-2,.6,0,1.2,0,1.8-.1ZM483.2,35v1.7c-.7,0-1.4,0-2.1.1-.3-.6-.5-1.2-.6-1.8h2.7ZM483.2,32.7v1.7h-2.7c0-.7.3-1.3.6-1.8.7,0,1.4.1,2.1.1h0ZM483.2,30.1v2.1c-.6,0-1.2,0-1.8-.1.6-.9,1.3-1.6,1.8-2ZM483.5,29.2c-3.8,0-6.9,2.5-6.9,5.5s3.1,5.5,6.9,5.5,6.9-2.5,6.9-5.5-3.1-5.5-6.9-5.5Z"/>
  <path class="st1" d="M527.3,38.2v1.5c-1.4.6-3.7.5-4.7-.6l-.2-2.8c-1.4-1.8-2-3.7-1.1-5.9.4-.9,1-1.6,1.9-2,2-.9,4.3-.2,5.5,1.5.5.8.7,1.7.8,2.6,0,.4.2.8.4,1.1l.6,1.3-.9.3c-.2,0-.3.2-.3.4v1.5c0,.2,0,.5,0,.7h-1.5c-.3,0-.5,0-.5.4h0ZM527.9,40.1v-1.7s1.3,0,1.3,0c.4,0,.7-.4.7-.8,0-.6,0-1.2,0-1.8.3-.1.7-.2,1-.4.3-.2.3-.4.1-.7-.4-.7-.8-1.4-1-2.2,0-1.2-.3-2.4-1.1-3.3-1.4-1.7-3.7-2.3-5.8-1.5-1.2.4-2,1.3-2.5,2.5-.9,2.3-.4,4.4,1.1,6.4l.2,2.8c0,.4.5.7.8.8,1.4.8,3.6.9,5.1,0h0Z"/>
  <path class="st1" d="M530.4,4.5h.2l.3.5h-.3l-.3-.5ZM530.2,3.9h.3c0,0,.1,0,.2,0,0,0,.1,0,.2.1,0,0,0,.1,0,.2s0,.2,0,.2c0,0,0,0-.2.1,0,0-.1,0-.2,0h-.3v-.2h.3c0,0,.1,0,.1,0,0,0,0,0,0-.1s0-.1,0-.1,0,0-.1,0h-.3v-.2ZM530,3.9h.2v1.1h-.2v-1.1ZM530.5,5.3c.2,0,.4,0,.6-.2.2-.1.2-.4.2-.6s0-.5-.2-.6c-.2-.1-.4-.2-.6-.2s-.4,0-.6.2c-.2.1-.2.4-.2.6s0,.3.1.5c0,.1.2.2.3.3.1,0,.3,0,.4,0ZM530.5,5.6c-.2,0-.4,0-.6-.1-.2,0-.3-.2-.4-.4,0-.2-.1-.4-.1-.6s0-.4.1-.6c0-.2.2-.3.4-.4.2,0,.4-.1.6-.1s.4,0,.6.1c.2,0,.3.2.4.4,0,.2.1.4.1.6s0,.4-.1.6c0,.2-.2.3-.4.4-.2,0-.4.1-.6.1Z"/>
  <path class="st1" d="M398.8,49.7l.2.2-2.1,2.1-.2-.2-.2-.2,2.1-2.1.2.2ZM396.7,47.6l.2-.2,2.1,2.1-.2.2-.2.2-2.1-2.1.2-.2ZM398.8,49.7l.2-.2.2.2-.2.2-.2-.2Z"/>
  <path class="st1" d="M395.1,45.4v-.3c-1.1,0-1.9.9-1.9,1.9h.5c0-.8.6-1.4,1.4-1.4v-.3ZM400.3,45.4v.3c.8,0,1.4.6,1.4,1.4h.5c0-1.1-.9-1.9-1.9-1.9v.3ZM393.5,48h-.3c0,1.1.9,1.9,1.9,1.9v-.5c-.8,0-1.4-.6-1.4-1.4h-.3ZM398.3,49.7v-.3h-3.1v.5h3.1v-.3ZM402,47.1h-.3v1.3h.5v-1.3h-.3ZM393.5,48h.3v-.9h-.5v.9h.3ZM395.1,45.4v.3h5.2v-.5h-5.2v.3ZM398.3,50c.1,0,.3-.1.3-.3s-.1-.3-.3-.3v.5ZM401.7,48.4c0,.1.1.3.3.3s.3-.1.3-.3h-.5Z"/>
  <path class="st1" d="M411.6,48.6h76.4v.5h-76.4v-.5ZM485.1,46h.4v4.4h2.3v.4h-2.7v-4.8ZM483.8,49.3h-2.2v-.4h2.2v.4ZM482.7,46.5h0l-1.5,4.3h-.4l1.7-4.8h.5l1.7,4.8h-.4l-1.5-4.3ZM476.3,46l1.8,4.1h0l1.8-4.1h.4v4.8h-.4v-3.8h0l-1.7,3.8h-.2l-1.7-3.8h0v3.8h-.4v-4.8h.4ZM473.1,50.8v-.4h1.9v.4h-1.9ZM473.1,46.3v-.4h1.9v.4h-1.9ZM474.3,50.8h-.4v-4.8h.4v4.8ZM472.3,50.8h-.5l-2.7-4.1h0v4.1h-.4v-4.8h.5l2.7,4.1h0v-4.1h.4v4.8ZM466,50.8v-.4h1.9v.4h-1.9ZM466,46.3v-.4h1.9v.4h-1.9ZM467.1,50.8h-.4v-4.8h.4v4.8ZM461.1,46l1.8,4.1h0l1.8-4.1h.4v4.8h-.4v-3.8h0l-1.7,3.8h-.2l-1.7-3.8h0v3.8h-.4v-4.8h.4ZM455,50.4c.5,0,.8,0,1.1-.2.3-.2.4-.4.6-.7.1-.3.2-.7.2-1.1s0-.8-.2-1.1c-.1-.3-.3-.5-.5-.7-.3-.2-.6-.2-1-.2h-1v4.1h1ZM453.6,50.8v-4.8h1.5c.7,0,1.2.2,1.6.6.4.4.5,1,.5,1.8s-.2,1.4-.5,1.8c-.4.4-.9.6-1.6.6h-1.4ZM452.7,50.8h-.5l-2.7-4.1h0v4.1h-.4v-4.8h.5l2.7,4.1h0v-4.1h.4v4.8ZM448,48.4c0-.7-.1-1.2-.4-1.6-.3-.3-.7-.5-1.2-.5s-.9.2-1.2.5c-.3.3-.4.9-.4,1.6s.1,1.2.4,1.6c.3.3.7.5,1.2.5s.9-.2,1.2-.5c.3-.3.4-.9.4-1.6ZM448.4,48.4c0,.8-.2,1.4-.5,1.8-.3.4-.8.6-1.5.6s-1.2-.2-1.5-.6c-.3-.4-.5-1-.5-1.8s.2-1.4.5-1.8c.3-.4.8-.6,1.5-.6s1.2.2,1.5.6c.3.4.5,1,.5,1.8ZM441,46l1.5,2.4h0l1.5-2.4h.4l-1.7,2.8v2h-.4v-2l-1.7-2.8h.5ZM437.5,46h2.7v.4h-2.3v1.9h2.1v.4h-2.1v1.9h2.3v.4h-2.7v-4.8ZM435.2,48.2c.4,0,.6,0,.8-.2.2-.2.3-.4.3-.7s0-.3,0-.4c0-.1-.2-.3-.3-.3-.1,0-.4-.1-.6-.1h-1.2v1.8h1.2ZM435.3,50.4c.3,0,.6,0,.7-.1.2,0,.3-.2.3-.3,0-.1,0-.3,0-.4s0-.4-.1-.5c0-.2-.2-.3-.4-.4-.2,0-.4-.1-.7-.1h-1.3v1.9h1.3ZM433.6,46h1.7c.3,0,.6,0,.8.2.2.1.4.3.5.4s.1.4.1.7,0,.4-.1.5c0,.1-.2.3-.3.3-.1,0-.3.1-.4.2h0c.1,0,.2,0,.4.1.1,0,.2.1.4.2.1,0,.2.2.3.4,0,.1.1.3.1.5s0,.5-.2.7c0,.2-.3.3-.5.4-.2.1-.5.2-.9.2h-1.7v-4.8ZM427.3,46h2.7v.4h-2.3v1.9h2.1v.4h-2.1v1.9h2.3v.4h-2.7v-4.8ZM426.2,47.4c0-.4-.2-.6-.4-.8-.2-.2-.5-.3-.9-.3s-.9.2-1.2.5c-.3.3-.4.9-.4,1.6s.1,1.2.4,1.6c.3.3.7.5,1.2.5s.7,0,.9-.3c.2-.2.4-.5.4-.8h.4c0,.5-.3.8-.6,1.1-.3.2-.7.4-1.2.4s-1.2-.2-1.5-.6c-.3-.4-.5-1-.5-1.8s.2-1.4.5-1.8c.3-.4.8-.6,1.5-.6s.6,0,.9.2c.3.1.5.3.6.5.2.2.3.5.3.8h-.4ZM421.9,49.3h-2.2v-.4h2.2v.4ZM420.8,46.5h0l-1.5,4.3h-.4l1.7-4.8h.5l1.7,4.8h-.4l-1.5-4.3ZM417.5,48.6c.3,0,.6,0,.7-.1.2,0,.3-.2.4-.4,0-.2.1-.4.1-.6s0-.4-.1-.6c0-.2-.2-.3-.4-.4-.2,0-.4-.1-.8-.1h-1.2v2.2h1.2ZM415.9,46h1.6c.4,0,.7,0,.9.2.2.1.4.3.5.5.1.2.2.5.2.8s0,.6-.2.8c-.1.2-.3.4-.5.5-.2.1-.5.2-.9.2h-1.2v1.9h-.4v-4.8ZM414.8,47c0-.3-.2-.5-.4-.6-.2-.1-.5-.2-.8-.2s-.7,0-.9.2c-.2.1-.3.4-.3.7s0,.3,0,.4c0,.1.2.2.3.3.1,0,.2.1.3.2.1,0,.2,0,.3,0h.5c.1.2.3.2.4.3s.3.1.4.2c.1,0,.3.2.3.4,0,.1.1.3.1.6s0,.5-.2.7c-.1.2-.3.4-.6.5-.3.1-.6.2-1,.2s-.9-.1-1.2-.3c-.3-.2-.4-.5-.5-.9h.4c0,.2,0,.4.2.5.1.1.3.2.4.3.2,0,.4,0,.6,0,.4,0,.7,0,1-.2.2-.2.3-.4.3-.8s0-.4-.1-.5c0-.1-.2-.2-.4-.3-.2,0-.3-.1-.5-.2l-.7-.2c-.4-.1-.7-.2-.9-.4-.2-.2-.3-.4-.3-.8s0-.5.2-.7c.1-.2.3-.3.5-.4.2-.1.5-.2.8-.2s.6,0,.8.1c.2,0,.4.2.5.4.1.2.2.4.2.6h-.4Z"/>
  <path class="st1" d="M530.8,50c-.2,0-.4,0-.6-.1-.2,0-.3-.2-.4-.3,0-.1-.1-.3-.2-.5h.3c0,.2,0,.4.2.5.1.1.4.2.6.2s.5,0,.7-.2c.1-.2.2-.4.2-.6s0-.3,0-.4c0-.1-.1-.2-.3-.3-.1,0-.3-.1-.5-.1-.2,0-.3,0-.5.1-.1,0-.2.2-.3.3h-.3l.2-2h1.9v.3h-1.6l-.2,1.4h0c0-.1.2-.2.3-.2.1,0,.3,0,.4,0,.3,0,.5,0,.7.2.2.1.3.2.4.4,0,.2.1.4.1.6s0,.4-.1.6c0,.2-.2.3-.4.4-.2,0-.4.1-.6.1ZM528,48c.3,0,.5,0,.6-.2.1-.1.2-.3.2-.5s0-.4-.2-.5c-.1-.1-.3-.2-.6-.2s-.5,0-.6.2c-.1.1-.2.3-.2.5s0,.4.2.5c.1.1.3.2.6.2ZM528,49.7c.3,0,.6,0,.7-.2.2-.1.2-.3.2-.6s0-.4-.2-.5c-.2-.1-.4-.2-.7-.2s-.5,0-.7.2c-.2.1-.2.3-.2.5s0,.4.2.6c.2.1.4.2.7.2ZM528,50c-.4,0-.7,0-.9-.3-.2-.2-.3-.4-.3-.7,0-.2,0-.3,0-.4,0-.1.1-.2.3-.3.1,0,.2-.1.4-.2h0c-.2,0-.3-.2-.4-.3-.1-.1-.2-.3-.2-.5s0-.3.1-.5c0-.1.2-.3.4-.3.2,0,.4-.1.6-.1s.5,0,.6.1c.2,0,.3.2.4.3,0,.1.1.3.1.5,0,.2,0,.4-.2.5-.1.1-.2.2-.4.3h0c.1,0,.3,0,.4.2s.2.2.3.3c0,.1,0,.3,0,.4s0,.4-.1.5c0,.1-.2.3-.4.3s-.4.1-.7.1ZM525.2,50c-.2,0-.4,0-.6-.1-.2,0-.3-.2-.4-.3s-.1-.3-.2-.5h.3c0,.2,0,.4.2.5.1.1.4.2.6.2s.5,0,.7-.2c.1-.2.2-.4.2-.6s0-.3,0-.4c0-.1-.1-.2-.3-.3-.1,0-.3-.1-.5-.1-.2,0-.3,0-.5.1-.1,0-.2.2-.3.3h-.3l.2-2h1.9v.3h-1.6l-.2,1.4h0c0-.1.2-.2.3-.2.1,0,.3,0,.4,0,.3,0,.5,0,.7.2.2.1.3.2.4.4,0,.2.1.4.1.6s0,.4-.1.6c0,.2-.2.3-.4.4-.2,0-.4.1-.6.1ZM523,46.6l-1.7,2.5h0c0-.1,2.5-.1,2.5-.1v.3h-2.7v-.3l1.8-2.5h.4v3.6h-.3v-3.4h.1ZM519.5,49.7c.3,0,.6-.1.7-.4.1-.3.2-.7.2-1.2s0-.9-.2-1.2c-.1-.3-.4-.4-.7-.4s-.6.1-.7.4c-.1.3-.2.7-.2,1.2s0,.9.2,1.2c.1.3.4.4.7.4ZM519.5,50c-.3,0-.5,0-.7-.2-.2-.1-.3-.3-.4-.6,0-.3-.1-.6-.1-1s0-.8.1-1c0-.3.2-.5.4-.6.2-.1.4-.2.7-.2s.5,0,.7.2c.2.1.3.3.4.6,0,.3.1.6.1,1s0,.8-.1,1c0,.3-.2.5-.4.6-.2.1-.4.2-.7.2ZM516.7,49.7c.3,0,.6-.1.7-.4.1-.3.2-.7.2-1.2s0-.9-.2-1.2c-.1-.3-.4-.4-.7-.4s-.6.1-.7.4c-.1.3-.2.7-.2,1.2s0,.9.2,1.2c.1.3.4.4.7.4ZM516.7,50c-.3,0-.5,0-.7-.2-.2-.1-.3-.3-.4-.6,0-.3-.1-.6-.1-1s0-.8.1-1c0-.3.2-.5.4-.6.2-.1.4-.2.7-.2s.5,0,.7.2c.2.1.3.3.4.6,0,.3.1.6.1,1s0,.8-.1,1c0,.3-.2.5-.4.6-.2.1-.4.2-.7.2ZM515.1,48.5h-1.4v-.3h1.4v.3ZM512.1,48.5h-.9v1.5h-.3v-3.6h1.2c.3,0,.5,0,.7.1.2,0,.3.2.4.4,0,.2.1.3.1.6s0,.3,0,.5-.1.2-.2.3c0,0-.2.2-.4.2-.2,0-.3,0-.6,0ZM512.1,48.2c.2,0,.4,0,.6,0s.2-.2.3-.3c0-.1,0-.3,0-.4s0-.3,0-.4c0-.1-.1-.2-.3-.3-.1,0-.3,0-.6,0h-.9v1.6h.9ZM512.5,48.3l.9,1.6h-.3l-.9-1.6h.3ZM509.2,50c-.2,0-.4,0-.6-.1-.2,0-.3-.2-.4-.3,0-.1-.2-.3-.2-.5h.3c0,.2,0,.3.1.4,0,.1.2.2.3.2.1,0,.3,0,.4,0,.3,0,.5,0,.6-.2.2-.1.2-.4.2-.6s0-.5-.2-.6c-.2-.1-.4-.2-.7-.2h-.4v-.2s1.2-1.3,1.2-1.3h0c0,.1-1.9.1-1.9.1v-.3h2.2v.2l-1.2,1.3h0c.3,0,.5,0,.6,0,.2,0,.3.2.4.3,0,.1.2.2.2.4,0,.1,0,.2,0,.4,0,.2,0,.4-.1.6,0,.2-.2.3-.4.4-.2,0-.4.1-.6.1ZM506.9,46.6l-1.7,2.5h0c0-.1,2.5-.1,2.5-.1v.3h-2.7v-.3l1.8-2.5h.4v3.6h-.3v-3.4h.1Z"/>
  <g class="st3">
    <path class="st1" d="M503.5,44.6v-.2c-2.1,0-3.8,1.7-3.8,3.8h.3c0-1.9,1.5-3.5,3.5-3.5v-.2ZM533.7,44.6v.2c1.9,0,3.5,1.5,3.5,3.5h.3c0-2.1-1.7-3.8-3.8-3.8v.2ZM537.3,48.2h-.2c0,1.9-1.5,3.5-3.5,3.5v.3c2.1,0,3.8-1.7,3.8-3.8h-.2ZM503.5,51.9v-.2c-1.9,0-3.5-1.5-3.5-3.5h-.3c0,2.1,1.7,3.8,3.8,3.8v-.2ZM533.7,51.9v-.2h-30.2v.3h30.2v-.2ZM503.5,44.6v.2h30.2v-.3h-30.2v.2Z"/>
  </g>
</svg>