<?xml version="1.0" encoding="UTF-8"?>
<svg id="Layer_1" xmlns="http://www.w3.org/2000/svg" xmlns:xlink="http://www.w3.org/1999/xlink" version="1.1" viewBox="0 0 457.4 131.3">
  <!-- Generator: Adobe Illustrator 30.5.1, SVG Export Plug-In . SVG Version: 2.1.4 Build 3)  -->
  <defs>
    <style>
      .st0 {
        fill: none;
      }

      .st1, .st2 {
        fill: #ffffff;
      }

      .st2 {
        fill-rule: evenodd;
      }

      .st3 {
        font-family: AuxMono-Regular, 'Aux Mono';
        font-size: 7.2px;
      }

      .st3, .st4, .st5 {
        isolation: isolate;
      }

      .st3, .st6, .st5 {
        fill: #fff;
      }

      .st7 {
        clip-path: url(#clippath-1);
      }

      .st8 {
        clip-path: url(#clippath-2);
      }

      .st9 {
        clip-path: url(#clippath);
      }

      .st5 {
        font-family: Akkurat, Akkurat;
        font-size: 10.1px;
      }
    </style>
    <clipPath id="clippath">
      <path class="st0" d="M314.9,6.6h120.1c12.3,0,22.2,9.9,22.2,22.2s-9.9,22.2-22.2,22.2h-120.1c-12.3,0-22.2-9.9-22.2-22.2s9.9-22.2,22.2-22.2Z"/>
    </clipPath>
    <clipPath id="clippath-1">
      <path class="st0" d="M421,111.7h24.8c1.6,0,3,1.3,3,3s-1.3,3-3,3h-24.8c-1.6,0-3-1.3-3-3s1.3-3,3-3Z"/>
    </clipPath>
    <clipPath id="clippath-2">
      <path class="st0" d="M100,124.8h26.8c1.8,0,3.2,1.4,3.2,3.2s-1.4,3.2-3.2,3.2h-26.8c-1.8,0-3.2-1.4-3.2-3.2s1.4-3.2,3.2-3.2Z"/>
    </clipPath>
  </defs>
  <g>
    <path class="st6" d="M54,46V10.8h7v35.2h-7Z"/>
    <path class="st6" d="M114.8,10.7l-15.5,25.6c-4.7,7.7-7.7,9.6-19.6,9.6h-13.6V10.7h7.1v30.9c10.5,0,14,.4,20.9-10.5l12-20.4h8.7Z"/>
    <path class="st6" d="M160.7,28.3c0,10-3.8,17.9-23.7,17.9h-1c-19.9,0-23.7-7.9-23.7-17.9s3.8-17.9,23.7-17.9h1c19.9,0,23.7,7.9,23.7,17.9ZM152.6,28.3c0-12.8-7-13.6-14.2-13.6h-3.6c-7.1,0-14.2.8-14.2,13.6s7.1,13.9,14.2,13.9h3.6c7.2,0,14.2-1.1,14.2-13.9Z"/>
    <path class="st6" d="M208.2,45.9c-3,0-2.4,0-4.4,0-3.5,0-7.1-2.1-11.5-6.9l-2.3-2.6h-19.1v9.5h-7.4V10.7h28.4c11.4,0,14,4.4,13.8,12.9-.1,4.5-1.3,10.1-8.3,12.1l10.8,10.2ZM199.1,23.8c0-5.5-1-8.6-7.7-8.6h-20.6v16h20.6c3.6,0,7.7-1.1,7.7-7.4Z"/>
    <path class="st6" d="M247,10.7l-18,22.6v12.6h-6.9v-12.4l-18.4-22.8h8l14.1,17.6,13.4-17.6h8Z"/>
    <g>
      <path class="st6" d="M0,46l15.6-25.9c4.7-7.8,7.8-9.6,19.8-9.6h13.8v35.5h-7.1v-29.3c-13.2,0-15.8-1.5-22.1,8.8l-12.1,20.6H0Z"/>
      <path class="st6" d="M33.2,38.7v7.4h-12.9l1.2-2.4c.9-1.6,1.7-3.1,3-3.9,0,0,1.6-1.1,4.3-1.1h4.3Z"/>
    </g>
  </g>
  <g>
    <g>
      <path class="st6" d="M368,40.1l7.6-12.6c2.3-3.8,3.8-4.7,9.7-4.7h6.7v17.3h-3.5v-14.3c-6.4,0-7.7-.7-10.8,4.3l-5.9,10s-3.8,0-3.8,0Z"/>
      <path class="st6" d="M384,36.5v3.6h-6.3l.6-1.2c.5-.8.8-1.5,1.5-1.9,0,0,.8-.5,2.1-.5h2.1Z"/>
    </g>
    <g class="st4">
      <text class="st5" transform="translate(427.7 36.7)"><tspan x="0" y="0">©</tspan></text>
    </g>
    <g>
      <path class="st6" d="M398.3,18.6v11.2h-1.6v-11.2h-16.2v-1.3h21.7v1.3h-3.8,0Z"/>
      <path class="st6" d="M404.3,28.1v-10.7h8.6v1.2h-7v3.3h6.2v1.3h-6.2v3.7h7v1.2h-8.6Z"/>
      <path class="st6" d="M424.5,24.7c0,.5-.2,1-.4,1.4s-.5.8-.9,1.1-.9.6-1.5.8c-.6.2-1.3.3-2,.3s-1.3,0-1.9-.3c-.6-.2-1.1-.5-1.6-.9-.4-.3-.6-.6-.8-.9-.2-.3-.4-.7-.5-1.1-.1-.4-.2-.8-.2-1.2,0-.4,0-.8,0-1.3s0-.8,0-1.3c0-.4,0-.8.2-1.2.1-.4.3-.7.5-1.1.2-.3.5-.6.8-.9.5-.4,1-.7,1.6-.9s1.2-.3,1.9-.3,1.4,0,2,.3c.6.2,1.1.5,1.5.8.4.3.7.7.9,1.1s.4.9.4,1.4h-1.7c0-.3,0-.6-.2-.8s-.3-.5-.5-.7c-.3-.2-.6-.4-1-.6s-.8-.2-1.4-.2-.9,0-1.3.2-.8.4-1.1.6c-.3.2-.5.5-.6.8s-.3.6-.3.9c0,.3-.1.6-.1.9v1.8c0,.3,0,.6.1.9s.2.6.3.9.4.5.6.8c.3.3.7.5,1.1.6s.8.2,1.3.2.9,0,1.4-.2.7-.4,1-.6c.2-.2.4-.5.5-.7.1-.3.2-.5.2-.8h1.7,0Z"/>
      <path class="st6" d="M434.9,28.1v-4.9h-6.2v4.9h-1.6v-10.7h1.6v4.5h6.2v-4.5h1.6v10.7h-1.6Z"/>
      <path class="st6" d="M396.7,40.1v-10.7h1.6v9.5h6.2v1.3h-7.8Z"/>
      <path class="st6" d="M414.3,40.1l-1.1-2.6h-5.6l-1,2.6h-1.6l4.6-10.7h1.9l4.6,10.7h-1.7,0ZM410.4,30.7l-2.3,5.6h4.6l-2.3-5.6Z"/>
      <path class="st6" d="M427.4,37.1c0,.4,0,.8-.3,1.1-.2.3-.4.6-.7.9-.4.3-.8.6-1.4.7-.6.2-1.2.3-1.8.3h-5.2v-10.7h5.2c.6,0,1.2,0,1.8.3s1,.4,1.4.7c.3.2.5.5.6.8s.2.6.2,1-.2,1-.5,1.5-.8.7-1.4.9c.3,0,.6.2.9.4.3.2.5.4.7.6.2.2.3.5.4.7s.2.5.2.8h0ZM425.4,32.2c0-.3,0-.5-.2-.7-.1-.2-.3-.4-.5-.5-.2-.1-.5-.3-.7-.3-.3,0-.6,0-.9,0h-3.6v3.4h3.6c.7,0,1.2-.1,1.6-.4.4-.3.6-.7.6-1.3h0ZM425.7,37c0-.3,0-.6-.2-.8-.1-.2-.3-.4-.5-.6s-.5-.3-.8-.4c-.3,0-.6-.1-1-.1h-3.6v3.7h3.6c.4,0,.7,0,1,0,.3,0,.6-.2.8-.3s.4-.4.5-.6c.1-.2.2-.5.2-.8h0Z"/>
    </g>
    <path class="st6" d="M361.8,40.1s10.6-16.6,11.6-18,2.2-3.5,7.1-3.5v-1.3s-4.3-.3-6.8,2.6c-2.5,2.8-13.3,20.1-13.3,20.1h1.5Z"/>
  </g>
  <g class="st4">
    <text class="st3" transform="translate(161.7 104)"><tspan x="0" y="0">AIVORY</tspan></text>
    <text class="st3" transform="translate(161.7 110.8)"><tspan x="0" y="0">AI SYSTEM</tspan></text>
    <text class="st3" transform="translate(161.7 117.5)"><tspan x="0" y="0">LAB</tspan></text>
  </g>
  <g class="st4">
    <text class="st3" transform="translate(271.2 104)"><tspan x="0" y="0">STRATEGY</tspan></text>
    <text class="st3" transform="translate(251.1 110.8)"><tspan x="0" y="0">ARCHITECTURE</tspan></text>
    <text class="st3" transform="translate(271.2 117.5)"><tspan x="0" y="0">DELIVERY</tspan></text>
  </g>
  <circle class="st6" cx="224.9" cy="100.2" r="1.7"/>
  <circle class="st6" cx="224.9" cy="115.8" r="1.7"/>
  <circle class="st6" cx="229.4" cy="111.8" r="1.7"/>
  <circle class="st6" cx="229.4" cy="104.2" r="1.7"/>
  <circle class="st6" cx="234" cy="108" r="1.7"/>
  <path class="st6" d="M268.5,0c.3,18.6.3,39.1,0,57.6-.3-18.6-.3-39.1,0-57.6h0Z"/>
  <path class="st1" d="M64.7,114.5h0c1.4,0,2.6,1.1,2.6,2.5h0c0-1.4-1.2-2.5-2.7-2.5h0ZM62.1,117h0c0-1.4,1.2-2.5,2.6-2.5h0c-1.5,0-2.7,1.1-2.7,2.5h0ZM64.7,119.5h0c-1.4,0-2.6-1.1-2.6-2.5h0c0,1.4,1.2,2.5,2.7,2.5h0ZM67.3,117h0c0,1.4-1.2,2.5-2.6,2.5h0c1.5,0,2.7-1.1,2.7-2.5h0ZM60.2,112h0c1.4,0,2.6,1.1,2.6,2.5h0c0-1.4-1.2-2.5-2.7-2.5h0ZM57.6,114.5h0c0-1.4,1.2-2.5,2.6-2.5h0c-1.5,0-2.7,1.1-2.7,2.5h0ZM60.2,117h0c-1.4,0-2.6-1.1-2.6-2.5h0c0,1.4,1.2,2.5,2.7,2.5h0ZM62.8,114.5h0c0,1.4-1.2,2.5-2.6,2.5h0c1.5,0,2.7-1.1,2.7-2.5h0ZM60.2,114.5h0c1.4,0,2.6,1.1,2.6,2.5h0c0-1.4-1.2-2.5-2.7-2.5h0ZM57.6,117h0c0-1.4,1.2-2.5,2.6-2.5h0c-1.5,0-2.7,1.1-2.7,2.5h0ZM60.2,119.5h0c-1.4,0-2.6-1.1-2.6-2.5h0c0,1.4,1.2,2.5,2.7,2.5h0ZM62.8,117h0c0,1.4-1.2,2.5-2.6,2.5h0c1.5,0,2.7-1.1,2.7-2.5h0ZM64.7,112h0c1.4,0,2.6,1.1,2.6,2.5h0c0-1.4-1.2-2.5-2.7-2.5h0ZM62.1,114.5h0c0-1.4,1.2-2.5,2.6-2.5h0c-1.5,0-2.7,1.1-2.7,2.5h0ZM64.7,117h0c-1.4,0-2.6-1.1-2.6-2.5h0c0,1.4,1.2,2.5,2.7,2.5h0ZM67.3,114.5h0c0,1.4-1.2,2.5-2.6,2.5h0c1.5,0,2.7-1.1,2.7-2.5h0ZM62.4,110.8h0c1.4,0,2.6,1.1,2.6,2.5h0c0-1.4-1.2-2.5-2.7-2.5h0ZM59.8,113.3h0c0-1.4,1.2-2.5,2.6-2.5h0c-1.5,0-2.7,1.1-2.7,2.5h0ZM62.4,115.8h0c-1.4,0-2.6-1.1-2.6-2.5h0c0,1.4,1.2,2.5,2.7,2.5h0ZM65.1,113.3h0c0,1.4-1.2,2.5-2.6,2.5h0c1.5,0,2.7-1.1,2.7-2.5h0ZM62.4,115.7h0c1.4,0,2.6,1.1,2.6,2.5h0c0-1.4-1.2-2.5-2.7-2.5h0ZM59.8,118.2h0c0-1.4,1.2-2.5,2.6-2.5h0c-1.5,0-2.7,1.1-2.7,2.5h0ZM62.4,120.7h0c-1.4,0-2.6-1.1-2.6-2.5h0c0,1.4,1.2,2.5,2.7,2.5h0ZM65.1,118.2h0c0,1.4-1.2,2.5-2.6,2.5h0c1.5,0,2.7-1.1,2.7-2.5h0Z"/>
  <g class="st9">
    <path class="st1" d="M314.9,6.6v-.2c-12.4,0-22.4,10-22.4,22.4h.4c0-12.1,9.8-22,22-22v-.2ZM435,6.6v.2c12.1,0,22,9.8,22,22h.4c0-12.4-10-22.4-22.4-22.4v.2ZM457.2,28.8h-.2c0,12.1-9.8,22-22,22v.4c12.4,0,22.4-10,22.4-22.4h-.2ZM314.9,51v-.2c-12.1,0-22-9.8-22-22h-.4c0,12.4,10,22.4,22.4,22.4v-.2ZM435,51v-.2h-120.1v.4h120.1v-.2ZM314.9,6.6v.2h120.1v-.4h-120.1v.2Z"/>
  </g>
  <path class="st1" d="M442.6,129.4c0,.2,0,.4.2.6.1.1.3.2.6.2s.4,0,.6-.2c.1-.1.2-.3.2-.6s0-.4-.2-.6c-.1-.1-.3-.2-.6-.2s-.4,0-.5.2c-.1.1-.2.3-.2.6ZM442.4,129.4c0-.1,0-.2,0-.3,0-.1,0-.2.1-.3,0-.1.2-.3.3-.4l.8-1h.3l-1,1.4h0c0,0,.1-.1.2-.1,0,0,.1,0,.2,0,0,0,.1,0,.2,0,.2,0,.4,0,.5.1.1,0,.3.2.3.3,0,.1.1.3.1.5s0,.4-.1.5-.2.3-.3.4c-.1,0-.3.1-.5.1-.3,0-.6,0-.7-.3-.2-.2-.3-.4-.2-.7ZM438.8,130.2l1.1-1.1c.1-.1.2-.3.3-.4,0-.1.1-.2.2-.3,0,0,0-.2,0-.3,0-.2,0-.3-.2-.4-.1-.1-.3-.2-.5-.2s-.4,0-.5.2c-.1.1-.2.3-.2.5h-.3c0-.2,0-.4.1-.5,0-.1.2-.2.3-.3.1,0,.3-.1.5-.1s.4,0,.5.1c.1,0,.2.2.3.3,0,.1.1.3.1.4s0,.2,0,.3c0,.1-.1.2-.2.4,0,.1-.2.3-.4.5l-1,1.1h0c0-.1,1.7-.1,1.7-.1v.2h-1.9v-.2ZM436.1,130.2c.3,0,.5-.1.6-.3.1-.2.2-.6.2-1s0-.8-.2-1c-.1-.2-.3-.3-.6-.3s-.5.1-.6.3c-.1.2-.2.6-.2,1s0,.8.2,1c.1.2.3.3.6.3ZM436.1,130.4c-.3,0-.5,0-.6-.2-.2-.1-.3-.3-.3-.5,0-.2-.1-.5-.1-.9s0-.7.1-.9c0-.2.2-.4.4-.5.2-.1.4-.2.6-.2s.5,0,.6.2c.2.1.3.3.4.5,0,.2.1.5.1.9s0,.7-.1.9c0,.2-.2.4-.4.5-.2.1-.4.2-.6.2ZM431.6,130.2l1.1-1.1c.1-.1.2-.3.3-.4,0-.1.1-.2.2-.3,0,0,0-.2,0-.3,0-.2,0-.3-.2-.4-.1-.1-.3-.2-.5-.2s-.4,0-.5.2c-.1.1-.2.3-.2.5h-.3c0-.2,0-.4.1-.5,0-.1.2-.2.3-.3.1,0,.3-.1.5-.1s.4,0,.5.1c.1,0,.2.2.3.3,0,.1.1.3.1.4s0,.2,0,.3c0,.1-.1.2-.2.4,0,.1-.2.3-.4.5l-1,1.1h0c0-.1,1.7-.1,1.7-.1v.2h-1.9v-.2ZM428.4,129.7c-.3,0-.5,0-.6-.2-.1-.2-.2-.4-.2-.6s0-.5.2-.6c.1-.2.3-.2.6-.2s.2,0,.3,0c0,0,.2.1.2.2,0,0,.1.2.1.3h-.2c0-.1,0-.2-.1-.2,0,0-.2,0-.3,0s-.3,0-.4.2c0,.1-.1.3-.1.5s0,.4.1.5c0,.1.2.2.4.2s.3,0,.3,0c0,0,.1-.1.1-.2h.2c0,.1,0,.2-.1.3,0,0-.1.1-.2.2,0,0-.2,0-.4,0ZM428.4,130.3c.2,0,.3,0,.5,0,.2,0,.3-.2.5-.3.1-.1.2-.3.3-.4,0-.2.1-.4.1-.6s0-.4-.1-.6c0-.2-.2-.3-.3-.4-.1-.1-.3-.2-.5-.3-.2,0-.3,0-.5,0s-.3,0-.5,0c-.2,0-.3.2-.5.3-.1.1-.2.3-.3.4,0,.2-.1.4-.1.6s0,.4.1.6c0,.2.2.3.3.4.1.1.3.2.5.3.2,0,.3,0,.5,0ZM428.4,130.5c-.2,0-.4,0-.6-.1-.2,0-.4-.2-.5-.3-.2-.1-.3-.3-.4-.5,0-.2-.1-.4-.1-.7s0-.5.1-.7c0-.2.2-.4.4-.5.2-.1.3-.2.5-.3.2,0,.4-.1.6-.1s.4,0,.6.1c.2,0,.4.2.5.3.2.1.3.3.4.5s.1.4.1.7,0,.5-.1.7c0,.2-.2.4-.4.5-.2.1-.3.2-.5.3-.2,0-.4.1-.6.1Z"/>
  <path class="st1" d="M441.4,93.3c0-1.1-.4-2-.9-3,1.3-.2,2.4-.5,3.3-.9,1,1.1,1.5,2.4,1.7,3.8h-4.1ZM440.5,97.1c.5-.9.8-1.9.9-3h4.1c-.1,1.4-.7,2.7-1.7,3.8-.9-.4-2-.7-3.3-.9ZM440.1,97.9c1.2.2,2.2.4,3.1.7-1.5,1.4-3.6,2.3-5.9,2.6.8-.7,2-1.9,2.9-3.3ZM431.7,97.9c.9,1.4,2,2.6,2.9,3.3-2.4-.3-4.4-1.2-5.9-2.6.8-.3,1.9-.6,3.1-.7h0ZM430.4,94.1c0,1.1.4,2,.9,2.9-1.3.2-2.4.5-3.3.9-1-1.1-1.5-2.4-1.6-3.8h4.1ZM431.2,90.3c-.5.9-.8,1.9-.9,2.9h-4.1c.1-1.4.7-2.7,1.6-3.8.9.4,2,.7,3.3.9ZM431.7,89.5c-1.2-.2-2.2-.4-3.1-.7,1.5-1.4,3.6-2.3,5.9-2.6-.8.7-2,1.9-2.9,3.3h0ZM437.2,86.2c2.4.3,4.4,1.2,5.9,2.6-.8.3-1.9.6-3.1.7-.9-1.4-2-2.6-2.9-3.3ZM436.4,89.8v-3.2c.7.6,1.8,1.7,2.7,3-.9,0-1.8.2-2.7.2h0ZM436.4,93.3v-2.6c1.1,0,2.2,0,3.2-.2.5.9.8,1.8.9,2.8h-4.1ZM436.4,96.7v-2.6h4.1c0,1-.4,1.9-.9,2.8-1-.1-2.1-.2-3.2-.2h0ZM436.4,100.8v-3.2c.9,0,1.8,0,2.7.2-.9,1.3-2,2.4-2.7,3h0ZM435.4,97.6v3.2c-.7-.6-1.8-1.7-2.7-3,.9,0,1.8-.1,2.7-.2ZM435.4,94.1v2.6c-1.1,0-2.2,0-3.2.2-.5-.9-.8-1.8-.9-2.8h4.1ZM435.4,90.7v2.6h-4.1c0-1,.4-1.9.9-2.8,1,.1,2.1.2,3.2.2h0ZM435.4,86.6v3.2c-.9,0-1.9,0-2.7-.2.9-1.3,2-2.4,2.7-3ZM435.9,85.3c-5.8,0-10.5,3.8-10.5,8.4s4.7,8.4,10.5,8.4,10.5-3.8,10.5-8.4-4.7-8.4-10.5-8.4Z"/>
  <path class="st1" d="M391,91.5c.5,0,.8-.2,1-.5.2-.4.3-.9.3-1.6s0-1.3-.3-1.6c-.2-.4-.5-.5-1-.5s-.8.2-1,.5c-.2.4-.3.9-.3,1.6s0,1.3.3,1.6c.2.4.5.5,1,.5ZM391,91.9c-.4,0-.7,0-1-.3-.3-.2-.4-.5-.6-.8-.1-.4-.2-.9-.2-1.4s0-1.1.2-1.4c.1-.4.3-.6.6-.8.3-.2.6-.3,1-.3s.7,0,1,.3c.3.2.4.5.6.8.1.4.2.8.2,1.4s0,1-.2,1.4c-.1.4-.3.7-.6.8-.3.2-.6.3-1,.3ZM384.8,91.5l1.7-1.8c.2-.2.4-.4.5-.6.1-.2.2-.3.3-.5,0-.2.1-.3.1-.5,0-.3,0-.5-.3-.7-.2-.2-.5-.2-.8-.2s-.6,0-.8.3c-.2.2-.3.5-.3.8h-.4c0-.3,0-.6.2-.8.1-.2.3-.4.5-.5s.5-.2.8-.2.6,0,.8.2c.2.1.4.3.5.4.1.2.2.4.2.7s0,.3,0,.5c0,.2-.2.4-.3.6-.2.2-.4.5-.7.8l-1.6,1.7v-.2h2.8v.4h-3.1v-.3ZM379.7,92.6h-.4l1.6-5.9h.4l-1.6,5.9ZM373.2,86.9h.4v4.6h2.4v.4h-2.8v-4.9ZM370.9,90.3h-2.3v-.4h2.3v.4ZM369.8,87.4h0l-1.5,4.4h-.4l1.8-4.9h.5l1.8,4.9h-.4l-1.5-4.4ZM366.3,88.3c0-.4-.2-.7-.5-.8-.2-.2-.6-.3-.9-.3s-.9.2-1.2.5c-.3.4-.4.9-.4,1.6s.1,1.3.4,1.6c.3.4.7.5,1.2.5s.7,0,.9-.3c.2-.2.4-.5.5-.8h.4c0,.5-.3.9-.6,1.1-.3.3-.7.4-1.3.4s-1.2-.2-1.5-.7c-.3-.4-.5-1.1-.5-1.9s.2-1.4.5-1.9c.3-.4.9-.7,1.5-.7s.6,0,.9.2c.3.1.5.3.6.5.2.2.3.5.3.8h-.4ZM359.4,91.8v-.4h1.9v.4h-1.9ZM359.4,87.3v-.4h1.9v.4h-1.9ZM360.6,91.8h-.4v-4.9h.4v4.9ZM354.5,86.9h3.6v.4h-1.6v4.6h-.4v-4.6h-1.6v-.4ZM352,89.5c.3,0,.6,0,.8-.1.2,0,.3-.2.4-.4,0-.2.1-.4.1-.6s0-.4-.1-.6c0-.2-.2-.3-.4-.4-.2,0-.4-.1-.8-.1h-1.2v2.3h1.2ZM350.3,86.9h1.6c.4,0,.7,0,1,.2.2.1.4.3.5.5s.2.5.2.8,0,.6-.2.8-.3.4-.5.5c-.2.1-.6.2-.9.2h-1.2v1.9h-.4v-4.9ZM348.3,89.4c0-.7-.1-1.3-.4-1.6-.3-.3-.7-.5-1.2-.5s-1,.2-1.2.5c-.3.3-.4.9-.4,1.6s.1,1.3.4,1.6c.3.3.7.5,1.2.5s1-.2,1.2-.5c.3-.4.4-.9.4-1.6ZM348.7,89.4c0,.8-.2,1.4-.5,1.9-.3.4-.9.7-1.5.7s-1.2-.2-1.5-.7c-.3-.4-.5-1.1-.5-1.9s.2-1.4.5-1.9c.4-.4.9-.7,1.5-.7s1.2.2,1.5.7c.4.4.5,1.1.5,1.9Z"/>
  <path class="st1" d="M399.4,96.3h3.6v.4h-1.6v4.6h-.4v-4.6h-1.6v-.4ZM398,97.7c0-.4-.2-.7-.5-.8-.2-.2-.6-.3-.9-.3s-.9.2-1.2.5c-.3.4-.4.9-.4,1.6s.1,1.3.4,1.6c.3.4.7.5,1.2.5s.7,0,.9-.3c.2-.2.4-.5.5-.8h.4c0,.5-.3.9-.6,1.1-.3.3-.7.4-1.3.4s-1.2-.2-1.5-.7c-.3-.4-.5-1.1-.5-1.9s.2-1.4.5-1.9c.3-.4.9-.7,1.5-.7s.6,0,.9.2c.3.1.5.3.6.5.2.2.3.5.3.8h-.4ZM390.3,96.3h2.8v.4h-2.4v1.9h2.2v.4h-2.2v1.9h2.4v.4h-2.8v-4.9ZM385.4,96.3h3.6v.4h-1.6v4.6h-.4v-4.6h-1.6v-.4ZM382.2,101.2v-.4h1.9v.4h-1.9ZM382.2,96.7v-.4h1.9v.4h-1.9ZM383.4,101.2h-.4v-4.9h.4v4.9ZM376.9,96.3h.4v2.3h2.8v-2.3h.4v4.9h-.4v-2.3h-2.8v2.3h-.4v-4.9ZM374.8,97.7c0-.4-.2-.7-.5-.8-.2-.2-.6-.3-.9-.3s-.9.2-1.2.5c-.3.4-.4.9-.4,1.6s.1,1.3.4,1.6c.3.4.7.5,1.2.5s.7,0,.9-.3c.2-.2.4-.5.5-.8h.4c0,.5-.3.9-.6,1.1s-.7.4-1.3.4-1.2-.2-1.5-.7c-.3-.4-.5-1.1-.5-1.9s.2-1.4.5-1.9c.3-.4.9-.7,1.5-.7s.6,0,.9.2c.3.1.5.3.6.5.2.2.3.5.3.8h-.4ZM368.2,99.2h-1.2v2h-.4v-4.9h1.6c.4,0,.7,0,1,.2.2.1.4.3.5.5.1.2.2.5.2.8s0,.5,0,.6c0,.2-.1.3-.3.5-.1.1-.3.2-.5.3-.2,0-.5,0-.8,0ZM368.2,98.8c.3,0,.6,0,.8-.1.2,0,.3-.2.4-.4,0-.2.1-.4.1-.6s0-.4-.1-.6c0-.2-.2-.3-.4-.4-.2,0-.4-.1-.8-.1h-1.2v2.2h1.2ZM368.7,99l1.3,2.3h-.5l-1.2-2.2h.4ZM364.3,99.8h-2.3v-.4h2.3v.4ZM363.2,96.8h0l-1.5,4.4h-.4l1.8-4.9h.5l1.8,4.9h-.4l-1.5-4.4ZM356.3,102h-.4l1.6-5.9h.4l-1.6,5.9ZM349.5,99.7c0,.4,0,.7.3.9.2.2.5.3.9.3s.7-.1.9-.3c.2-.2.3-.5.3-.9s0-.7-.3-.9-.5-.3-.9-.3-.7.1-.9.3c-.2.2-.3.5-.3.9ZM349.1,99.7c0-.2,0-.4,0-.5,0-.2.1-.4.2-.6.1-.2.3-.4.4-.7l1.2-1.6h.5l-1.7,2.2h0c0-.1.2-.2.3-.2,0,0,.2,0,.3,0,0,0,.2,0,.3,0,.3,0,.6,0,.9.2.2.1.4.3.5.5.1.2.2.5.2.8s0,.6-.2.8c-.1.2-.3.4-.5.6-.2.1-.5.2-.9.2-.5,0-.9-.1-1.2-.4-.3-.3-.4-.7-.4-1.2ZM344.5,100.9l1.7-1.8c.2-.2.4-.4.5-.6.1-.2.2-.3.3-.5,0-.2.1-.3.1-.5,0-.3,0-.5-.3-.7-.2-.2-.5-.2-.8-.2s-.6,0-.8.3c-.2.2-.3.5-.3.8h-.4c0-.3,0-.6.2-.8.1-.2.3-.4.5-.5s.5-.2.8-.2.6,0,.8.2c.2.1.4.3.5.4.1.2.2.4.2.7s0,.3,0,.5c0,.2-.2.4-.3.6-.2.2-.4.5-.7.8l-1.6,1.7v-.2h2.8v.4h-3.1v-.3Z"/>
  <path class="st1" d="M443.4,116.2c-.2,0-.4,0-.5,0-.1,0-.2-.1-.3-.3,0-.1-.1-.3-.1-.4h.3c0,.2,0,.3.2.4.1,0,.3.1.5.1s.4,0,.5-.2c.1-.1.2-.3.2-.5s0-.3,0-.4c0-.1-.1-.2-.2-.3-.1,0-.2-.1-.4-.1-.2,0-.3,0-.4,0-.1,0-.2.1-.3.2h-.3l.2-1.7h1.5v.2h-1.3v1.2c-.1,0-.1,0-.1,0,0,0,.1-.2.2-.2.1,0,.2,0,.4,0,.2,0,.4,0,.5.1.1,0,.3.2.3.3,0,.1.1.3.1.5s0,.3-.1.5c0,.1-.2.3-.3.3-.1,0-.3.1-.5.1ZM441.1,114.5c.2,0,.4,0,.5-.2.1-.1.2-.2.2-.4s0-.3-.2-.4c-.1-.1-.3-.2-.5-.2s-.4,0-.5.2c-.1.1-.2.2-.2.4s0,.3.2.4c.1.1.3.2.5.2ZM441.1,115.9c.3,0,.5,0,.6-.2.1-.1.2-.3.2-.5s0-.3-.2-.5c-.1-.1-.3-.2-.6-.2s-.4,0-.6.2c-.1.1-.2.3-.2.5s0,.3.2.5c.1.1.3.2.6.2ZM441.1,116.2c-.4,0-.6,0-.8-.2-.2-.1-.2-.3-.2-.6,0-.1,0-.3,0-.4,0-.1.1-.2.2-.3,0,0,.2-.1.3-.1h0c-.2,0-.3-.1-.4-.3,0-.1-.1-.3-.1-.4s0-.3,0-.4c0-.1.2-.2.3-.3.1,0,.3-.1.5-.1s.4,0,.5.1c.1,0,.2.2.3.3,0,.1,0,.2,0,.4,0,.2,0,.3-.1.4,0,.1-.2.2-.4.2h0c.1,0,.2,0,.3.2s.2.2.2.3c0,.1,0,.2,0,.4s0,.3-.1.4c0,.1-.2.2-.3.3s-.3,0-.6,0ZM438.8,116.2c-.2,0-.4,0-.5,0-.1,0-.2-.1-.3-.3s-.1-.3-.1-.4h.3c0,.2,0,.3.2.4.1,0,.3.1.5.1s.4,0,.5-.2c.1-.1.2-.3.2-.5s0-.3,0-.4c0-.1-.1-.2-.2-.3-.1,0-.2-.1-.4-.1-.2,0-.3,0-.4,0-.1,0-.2.1-.3.2h-.3l.2-1.7h1.5v.2h-1.3v1.2c-.1,0-.1,0-.1,0,0,0,.1-.2.2-.2.1,0,.2,0,.4,0,.2,0,.4,0,.5.1.1,0,.3.2.3.3,0,.1.1.3.1.5s0,.3-.1.5c0,.1-.2.3-.3.3-.1,0-.3.1-.5.1ZM437,113.3l-1.4,2h0c0-.1,2.1-.1,2.1-.1v.2h-2.2v-.2l1.5-2.1h.3v3h-.2v-2.8h0ZM434.1,115.9c.3,0,.5-.1.6-.3.1-.2.2-.5.2-1s0-.8-.2-1c-.1-.2-.3-.3-.6-.3s-.5.1-.6.3c-.1.2-.2.5-.2,1s0,.8.2,1c.1.2.3.3.6.3ZM434.1,116.2c-.2,0-.4,0-.6-.2-.2-.1-.3-.3-.3-.5,0-.2-.1-.5-.1-.9s0-.6.1-.9c0-.2.2-.4.3-.5.2-.1.4-.2.6-.2s.4,0,.6.2c.2.1.3.3.3.5,0,.2.1.5.1.9s0,.6-.1.9c0,.2-.2.4-.3.5-.2.1-.3.2-.6.2ZM431.8,115.9c.3,0,.5-.1.6-.3.1-.2.2-.5.2-1s0-.8-.2-1c-.1-.2-.3-.3-.6-.3s-.5.1-.6.3c-.1.2-.2.5-.2,1s0,.8.2,1c.1.2.3.3.6.3ZM431.8,116.2c-.2,0-.4,0-.6-.2-.2-.1-.3-.3-.3-.5,0-.2-.1-.5-.1-.9s0-.6.1-.9c0-.2.2-.4.3-.5.2-.1.4-.2.6-.2s.4,0,.6.2c.2.1.3.3.3.5,0,.2.1.5.1.9s0,.6-.1.9c0,.2-.2.4-.3.5-.2.1-.3.2-.6.2ZM430.5,114.9h-1.1v-.2h1.1v.2ZM428,114.9h-.7v1.2h-.3v-3h1c.2,0,.4,0,.6.1.1,0,.2.2.3.3,0,.1.1.3.1.5s0,.3,0,.4c0,.1,0,.2-.2.3,0,0-.2.1-.3.2-.1,0-.3,0-.5,0ZM428,114.7c.2,0,.4,0,.5,0,.1,0,.2-.1.2-.2,0,0,0-.2,0-.4s0-.3,0-.4-.1-.2-.2-.2c-.1,0-.3,0-.5,0h-.7v1.3h.7ZM428.3,114.8l.8,1.4h-.3l-.7-1.3h.3ZM425.6,116.2c-.2,0-.4,0-.5,0-.1,0-.3-.1-.3-.3,0-.1-.1-.3-.1-.5h.3c0,.1,0,.2,0,.3,0,0,.1.2.2.2.1,0,.2,0,.4,0,.2,0,.4,0,.5-.2.1-.1.2-.3.2-.5s0-.4-.2-.5c-.1-.1-.3-.2-.5-.2h-.3v-.2s1-1.1,1-1.1h0c0,0-1.6,0-1.6,0v-.2h1.8v.2l-1,1.1h0c.2,0,.4,0,.5,0,.1,0,.2.1.3.2,0,0,.1.2.2.3,0,.1,0,.2,0,.3,0,.2,0,.4-.1.5,0,.1-.2.2-.3.3-.1,0-.3.1-.5.1ZM423.8,113.3l-1.4,2h0c0-.1,2.1-.1,2.1-.1v.2h-2.2v-.2l1.5-2.1h.3v3h-.2v-2.8h0Z"/>
  <g class="st7">
    <path class="st1" d="M421,111.7h0c-1.7-.1-3.1,1.3-3.1,3h.2c0-1.6,1.3-2.8,2.8-2.8h0ZM445.8,111.7h0c1.6.1,2.8,1.4,2.8,3h.2c0-1.7-1.4-3.1-3.1-3.1h0ZM448.8,114.7h-.1c0,1.6-1.3,2.8-2.8,2.8h0v.2c1.7,0,3.1-1.4,3.1-3.1h-.1ZM421,117.7h0c-1.6-.1-2.8-1.4-2.8-3h-.2c0,1.7,1.4,3.1,3.1,3.1h0ZM445.8,117.7h0c0-.1-24.8-.1-24.8-.1h0v.2h24.8ZM421,111.7h0c0,.1,24.8.1,24.8.1h0v-.2h-24.8Z"/>
  </g>
  <path class="st1" d="M433.6,93.7c0,4.2-3.7,7.7-8.3,7.7s-8.3-3.4-8.3-7.7,3.7-7.7,8.3-7.7,8.3,3.4,8.3,7.7ZM425.3,85.3c-5,0-9.1,3.8-9.1,8.4s4.1,8.4,9.1,8.4,9.1-3.8,9.1-8.4-4.1-8.4-9.1-8.4Z"/>
  <path class="st1" d="M344.1,110.9l-.2.2,3.9,3.9.2-.2.2-.2-3.9-3.9-.2.2ZM344.1,110.9v.3h2.9v-.6h-2.9v.3ZM344.1,113.8h.3v-2.9h-.6v2.9h.3ZM347.8,114.9c.1.1.3.1.4,0s.1-.3,0-.4l-.2.2-.2.2ZM344.1,110.9v-.3h-.3v.3h.3Z"/>
  <path class="st1" d="M344.1,118.6l-.2-.2,3.9-3.9.2.2.2.2-3.9,3.9-.2-.2ZM344.1,118.6v-.3h2.9v.6h-2.9v-.3ZM344.1,115.7h.3v2.9h-.6v-2.9h.3ZM347.8,114.6c.1-.1.3-.1.4,0,.1.1.1.3,0,.4l-.2-.2-.2-.2ZM344.1,118.6v.3h-.3v-.3h.3Z"/>
  <path class="st1" d="M351.9,110.9l.2.2-3.9,3.9-.2-.2-.2-.2,3.9-3.9.2.2ZM351.9,110.9v.3h-2.9v-.6h2.9v.3ZM351.9,113.8h-.3v-2.9h.6v2.9h-.3ZM348.2,114.9c-.1.1-.3.1-.4,0s-.1-.3,0-.4l.2.2.2.2ZM351.9,110.9v-.3h.3v.3h-.3Z"/>
  <path class="st1" d="M351.9,118.6l.2-.2-3.9-3.9-.2.2-.2.2,3.9,3.9.2-.2ZM351.9,118.6v-.3h-2.9v.6h2.9v-.3ZM351.9,115.7h-.3v2.9h.6v-2.9h-.3ZM348.2,114.6c-.1-.1-.3-.1-.4,0-.1.1-.1.3,0,.4l.2-.2.2-.2ZM351.9,118.6v.3h.3v-.3h-.3Z"/>
  <path class="st2" d="M364,117.4v1.1c-.1,0-.3,0-.4,0-2.1,0-3.9-1.7-3.9-3.9s1.7-3.9,3.9-3.9.3,0,.4,0v1.1c-.1,0-.3,0-.4,0-1.5,0-2.7,1.2-2.7,2.7s1.2,2.7,2.7,2.7.3,0,.4,0h0Z"/>
  <path class="st2" d="M365.6,114.1h2.2v1.2h-2.2c.3,1.2,1.4,2.1,2.7,2.1s.3,0,.4,0v1.1c-.1,0-.3,0-.4,0-2.1,0-3.9-1.7-3.9-3.9s1.7-3.9,3.9-3.9.3,0,.4,0v1.1c-.1,0-.3,0-.4,0-1.3,0-2.4.9-2.7,2.1Z"/>
  <path class="st1" d="M384.9,114.3h11.1c.2,0,.3.1.3.3s-.1.3-.3.3h-11.1c-1.5,0-2.8,1.3-2.8,2.8v1.5c0,.2-.1.3-.3.3s-.3-.1-.3-.3v-1.5c0-1.5-1.3-2.8-2.8-2.8h-2.6c-.2,0-.3-.1-.3-.3s.1-.3.3-.3h2.6c1.5,0,2.8-1.3,2.8-2.8v-1.5c0-.2.1-.3.3-.3s.3.1.3.3v1.5c0,1.5,1.3,2.8,2.8,2.8Z"/>
  <path class="st1" d="M321,20.2h24.1c.1,0,.2.1.2.2s-.1.2-.2.2h-24.1c-1.3,0-2.3,1-2.3,2.3v1.2c0,.1-.1.2-.2.2s-.2-.1-.2-.2v-1.2c0-1.3-1-2.3-2.3-2.3h-2.1c-.1,0-.2-.1-.2-.2s.1-.2.2-.2h2.1c1.3,0,2.3-1,2.3-2.3v-1.2c0-.1.1-.2.2-.2s.2.1.2.2v1.2c0,1.3,1,2.3,2.3,2.3Z"/>
  <path class="st1" d="M321,36h24.1c.1,0,.2.1.2.2s-.1.2-.2.2h-24.1c-1.3,0-2.3,1-2.3,2.3v1.2c0,.1-.1.2-.2.2s-.2-.1-.2-.2v-1.2c0-1.3-1-2.3-2.3-2.3h-2.1c-.1,0-.2-.1-.2-.2s.1-.2.2-.2h2.1c1.3,0,2.3-1,2.3-2.3v-1.2c0-.1.1-.2.2-.2s.2.1.2.2v1.2c0,1.3,1,2.3,2.3,2.3Z"/>
  <path class="st1" d="M311.8,27.9h24.1c.1,0,.2.1.2.2s-.1.2-.2.2h-24.1c-1.3,0-2.3,1-2.3,2.3v1.2c0,.1-.1.2-.2.2s-.2-.1-.2-.2v-1.2c0-1.3-1-2.3-2.3-2.3h-2.1c-.1,0-.2-.1-.2-.2s.1-.2.2-.2h2.1c1.3,0,2.3-1,2.3-2.3v-1.2c0-.1.1-.2.2-.2s.2.1.2.2v1.2c0,1.3,1,2.3,2.3,2.3Z"/>
  <path class="st1" d="M406.4,130.2c.3,0,.5,0,.7-.2.2-.1.3-.3.4-.5,0-.2.1-.4.1-.7s0-.5-.1-.7c0-.2-.2-.4-.4-.5-.2-.1-.4-.2-.7-.2h-.7v2.6h.6ZM405.5,130.4v-3.1h1c.5,0,.8.1,1,.4.2.3.3.6.3,1.2s-.1.9-.4,1.2c-.2.3-.6.4-1.1.4h-.9ZM402,127.3h1.7v.2h-1.5v1.2h1.4v.2h-1.4v1.2h1.5v.2h-1.8v-3.1ZM399.1,130.1h0l1-2.8h.3l-1.1,3.1h-.4l-1.1-3.1h.3l1,2.8ZM395.3,129.1h-.8v1.3h-.3v-3.1h1c.3,0,.5,0,.6.1.2,0,.3.2.3.3,0,.1.1.3.1.5s0,.3,0,.4c0,.1,0,.2-.2.3,0,0-.2.1-.3.2-.1,0-.3,0-.5,0ZM395.3,128.9c.2,0,.4,0,.5,0,.1,0,.2-.1.2-.2s0-.2,0-.4,0-.3,0-.4-.1-.2-.2-.2c-.1,0-.3,0-.5,0h-.8v1.4h.8ZM395.6,129l.8,1.4h-.3l-.8-1.4h.3ZM390.7,127.3h1.7v.2h-1.5v1.2h1.4v.2h-1.4v1.2h1.5v.2h-1.8v-3.1ZM388.8,128c0-.2-.1-.3-.2-.4-.1,0-.3-.1-.5-.1s-.4,0-.6.1c-.1,0-.2.2-.2.4s0,.2,0,.3c0,0,0,.1.2.2,0,0,.1,0,.2.1,0,0,.1,0,.2,0h.3c0,.1.2.1.3.2,0,0,.2,0,.3.1,0,0,.2.1.2.2,0,0,0,.2,0,.4s0,.3-.1.4-.2.2-.4.3c-.2,0-.4.1-.6.1s-.6,0-.8-.2c-.2-.1-.3-.3-.3-.6h.3c0,.1,0,.2.1.3,0,0,.2.1.3.2.1,0,.2,0,.4,0,.3,0,.5,0,.6-.2.1-.1.2-.3.2-.5s0-.2,0-.3c0,0-.1-.1-.2-.2-.1,0-.2,0-.3-.1h-.4c-.2-.2-.4-.3-.6-.4-.1-.1-.2-.3-.2-.5s0-.3.1-.4c0-.1.2-.2.4-.3.2,0,.3-.1.5-.1s.4,0,.5,0c.1,0,.3.1.4.2,0,.1.1.2.1.4h-.3ZM383.6,127.3h1.7v.2h-1.5v1.2h1.4v.2h-1.4v1.2h1.5v.2h-1.8v-3.1ZM380.8,129.1h-.8v1.3h-.3v-3.1h1c.3,0,.5,0,.6.1.2,0,.3.2.3.3,0,.1.1.3.1.5s0,.3,0,.4c0,.1,0,.2-.2.3,0,0-.2.1-.3.2-.1,0-.3,0-.5,0ZM380.8,128.9c.2,0,.4,0,.5,0s.2-.1.2-.2c0-.1,0-.2,0-.4s0-.3,0-.4c0,0-.1-.2-.2-.2-.1,0-.3,0-.5,0h-.8v1.4h.8ZM381.1,129l.8,1.4h-.3l-.8-1.4h.3ZM375.6,128c0-.2-.1-.3-.2-.4-.1,0-.3-.1-.5-.1s-.4,0-.6.1c-.1,0-.2.2-.2.4s0,.2,0,.3c0,0,0,.1.2.2,0,0,.1,0,.2.1,0,0,.1,0,.2,0h.3c0,.1.2.1.3.2,0,0,.2,0,.3.1,0,0,.2.1.2.2,0,0,0,.2,0,.4s0,.3-.1.4-.2.2-.4.3c-.2,0-.4.1-.6.1s-.6,0-.8-.2c-.2-.1-.3-.3-.3-.6h.3c0,.1,0,.2.1.3,0,0,.2.1.3.2.1,0,.2,0,.4,0,.3,0,.5,0,.6-.2.1-.1.2-.3.2-.5s0-.2,0-.3c0,0-.1-.1-.2-.2-.1,0-.2,0-.3-.1h-.4c-.2-.2-.4-.3-.6-.4-.1-.1-.2-.3-.2-.5s0-.3.1-.4c0-.1.2-.2.4-.3.2,0,.3-.1.5-.1s.4,0,.5,0c.1,0,.3.1.4.2,0,.1.1.2.1.4h-.3ZM370.2,127.3h2.3v.2h-1v2.9h-.3v-2.9h-1v-.2ZM366.5,127.3h.3v1.4h1.7v-1.4h.3v3.1h-.3v-1.4h-1.7v1.4h-.3v-3.1ZM364.5,129.1h-.9v-.2h1.1v.4c0,.2,0,.4-.1.6,0,.2-.2.3-.4.5-.2.1-.4.2-.7.2-.4,0-.8-.1-1-.4-.2-.3-.3-.7-.3-1.2s.1-.9.3-1.2c.2-.3.6-.4,1-.4s.4,0,.5.1c.2,0,.3.2.4.3.1.1.2.3.2.5h-.3c0-.3-.2-.4-.3-.5-.2-.1-.4-.2-.6-.2s-.6.1-.8.3-.3.6-.3,1,0,.8.3,1,.4.3.8.3.3,0,.4,0c.1,0,.2-.1.3-.2,0,0,.1-.2.2-.3,0,0,0-.2,0-.3,0,0,0-.2,0-.3ZM359.3,130.4v-.2h1.2v.2h-1.2ZM359.3,127.5v-.2h1.2v.2h-1.2ZM360.1,130.4h-.3v-3.1h.3v3.1ZM356.6,129.1h-.8v1.3h-.3v-3.1h1c.3,0,.5,0,.6.1.2,0,.3.2.3.3,0,.1.1.3.1.5s0,.3,0,.4c0,.1,0,.2-.2.3,0,0-.2.1-.3.2-.1,0-.3,0-.5,0ZM356.6,128.9c.2,0,.4,0,.5,0s.2-.1.2-.2c0-.1,0-.2,0-.4s0-.3,0-.4c0,0-.1-.2-.2-.2-.1,0-.3,0-.5,0h-.8v1.4h.8ZM356.9,129l.8,1.4h-.3l-.8-1.4h.3ZM350.1,127.3h.3v2.9h1.5v.2h-1.7v-3.1ZM346.8,127.3h.3v2.9h1.5v.2h-1.7v-3.1ZM344.7,129.5h-1.4v-.2h1.4v.2ZM344,127.6h0l-1,2.8h-.3l1.1-3.1h.3l1.1,3.1h-.3l-1-2.8Z"/>
  <g>
    <path class="st6" d="M17.9,95.3v-9.9h2v9.9h-2Z"/>
    <path class="st6" d="M35.1,85.3l-4.4,7.2c-1.3,2.2-2.2,2.7-5.5,2.7h-3.8v-9.9h2v8.7c3,0,3.9.1,5.9-3l3.4-5.7h2.5Z"/>
    <path class="st6" d="M48,90.3c0,2.8-1.1,5-6.7,5h-.3c-5.6,0-6.7-2.2-6.7-5s1.1-5,6.7-5h.3c5.6,0,6.7,2.2,6.7,5ZM45.7,90.3c0-3.6-2-3.8-4-3.8h-1c-2,0-4,.2-4,3.8s2,3.9,4,3.9h1c2,0,4-.3,4-3.9Z"/>
    <path class="st6" d="M61.4,95.2c-.9,0-.7,0-1.2,0-1,0-2-.6-3.2-2l-.7-.7h-5.4v2.7h-2.1v-9.9h8c3.2,0,4,1.2,3.9,3.6s-.4,2.8-2.3,3.4l3,2.9ZM58.8,89c0-1.5-.3-2.4-2.2-2.4h-5.8v4.5h5.8c1,0,2.2-.3,2.2-2.1Z"/>
    <path class="st6" d="M72.3,85.3l-5.1,6.4v3.5h-2v-3.5l-5.2-6.4h2.2l4,5,3.8-5h2.2Z"/>
    <g>
      <path class="st6" d="M2.7,95.3l4.4-7.3c1.3-2.2,2.2-2.7,5.6-2.7h3.9v10h-2v-8.3c-3.7,0-4.4-.4-6.2,2.5l-3.4,5.8h-2.2Z"/>
      <path class="st6" d="M12.1,93.2v2.1h-3.6l.3-.7c.3-.5.5-.9.9-1.1,0,0,.4-.3,1.2-.3h1.2Z"/>
    </g>
  </g>
  <polygon class="st1" points="3.2 101.9 3.2 101.9 27.6 101.9 28.1 101.9 52.5 101.9 53 101.9 77.4 101.9 77.9 101.9 102.3 101.9 102.8 101.9 127.2 101.9 127.7 101.9 127.7 101.9 127.7 107.5 127.2 107.5 127.2 102.4 115.3 102.4 115.3 104.7 115 104.7 115 102.4 102.8 102.4 102.8 107.5 102.3 107.5 102.3 102.4 90.4 102.4 90.4 104.7 90.1 104.7 90.1 102.4 77.9 102.4 77.9 107.5 77.4 107.5 77.4 102.4 65.5 102.4 65.5 104.7 65.2 104.7 65.2 102.4 53 102.4 53 107.5 52.5 107.5 52.5 102.4 40.6 102.4 40.6 104.7 40.3 104.7 40.3 102.4 28.1 102.4 28.1 107.5 27.6 107.5 27.6 102.4 15.7 102.4 15.7 104.7 15.4 104.7 15.4 102.4 3.2 102.4 3.2 107.5 2.7 107.5 2.7 101.9 3.2 101.9"/>
  <path class="st1" d="M120.7,90.1c0-.2,0-.3-.2-.4-.1,0-.3-.1-.5-.1s-.4,0-.5.1c-.1,0-.2.2-.2.3s0,.2.1.3c0,0,.2.1.4.2l.6.2c.5.1.8.3,1,.5s.4.5.4.8-.2.8-.5,1c-.3.2-.8.4-1.4.4s-1.1-.1-1.4-.4c-.3-.3-.5-.6-.5-1.1h1.2c0,.2,0,.3.2.4.1,0,.3.1.5.1s.5,0,.6-.1c.1,0,.2-.2.2-.3s0-.2-.1-.3c0,0-.2-.1-.4-.2l-.6-.2c-.5-.1-.8-.3-1-.5-.2-.2-.4-.5-.4-.8s.2-.7.5-1c.3-.3.8-.4,1.3-.4s1,.1,1.3.4c.3.3.5.6.5,1.1h-1.1ZM115.4,92.4c.4,0,.7-.1.8-.4.2-.2.3-.6.3-1.1s0-.8-.3-1.1c-.2-.2-.5-.4-.8-.4s-.6.1-.8.4c-.2.2-.3.6-.3,1.1s0,.8.3,1.1c.2.2.5.4.8.4ZM115.7,93.4c-.4,0-.8-.1-1.1-.3-.3-.2-.5-.5-.6-.8-.1-.4-.2-.8-.2-1.2s0-.9.2-1.2.3-.6.6-.8c.3-.2.6-.3,1.1-.3s.7,0,1,.2c.3.2.5.4.7.8.2.3.3.8.3,1.4s-.2,1.4-.5,1.8c-.4.4-.8.6-1.4.6ZM114.3,87v6.3h-1.2v-6.3h1.2ZM109.2,91.9c0,.2,0,.3.2.4.1,0,.3.1.5.1s.6,0,.8-.2c.2-.2.3-.4.3-.7v-.3h-1c-.3,0-.5,0-.6.2-.1,0-.2.2-.2.4ZM112.6,93.3h-.7c-.3,0-.5,0-.6-.3-.1-.2-.2-.4-.2-.7h.3c-.1.3-.3.6-.5.8-.2.2-.6.3-.9.3s-.6,0-.9-.1c-.3-.1-.4-.3-.6-.5-.1-.2-.2-.5-.2-.8s0-.5.2-.7c.1-.2.3-.3.5-.4.2-.1.4-.2.6-.2.2,0,.4,0,.7,0h1v-.3c0-.2,0-.4-.2-.5-.1-.1-.3-.2-.6-.2s-.5,0-.6.1c-.1,0-.2.3-.2.5h-1.2c0-.3.1-.6.3-.8.2-.2.4-.4.7-.5.3-.1.6-.2,1-.2s.4,0,.6,0c.2,0,.4.1.6.3.2.1.3.3.5.5.1.2.2.5.2.8v2h.4v.9ZM107.4,93.3h-1.2v-6.3h1.2v6.3ZM100.6,93.3h-1.2v-4.5h1.2v.5c.1-.2.3-.4.5-.5.2,0,.4-.1.7-.1.5,0,.9.1,1.2.4.3.3.5.8.5,1.4v2.8h-1.2v-2.8c0-.3,0-.6-.2-.7-.1-.1-.3-.2-.6-.2s-.4,0-.5.1c-.1,0-.2.2-.3.3,0,.2,0,.3,0,.6v2.7ZM98.4,92.9c0,.7-.1,1.3-.5,1.7-.3.4-.9.6-1.6.6s-.9,0-1.2-.2c-.3-.1-.5-.3-.7-.5-.1-.2-.2-.5-.2-.8h1.2c0,.1,0,.2,0,.3,0,0,.1.2.3.2.1,0,.3,0,.6,0s.5,0,.6-.1c.1,0,.2-.2.3-.4,0-.2,0-.5,0-.8h1.2ZM97.3,88.7h1.2v4.3h-1.2v-3.4h0v-.8ZM96.2,92.3c.4,0,.6-.1.8-.3.2-.2.3-.6.3-1s0-.8-.3-1-.5-.3-.8-.3-.7.1-.8.3c-.2.2-.3.6-.3,1s0,.8.3,1c.2.2.5.3.8.3ZM95.8,93.2c-.6,0-1-.2-1.4-.6-.4-.4-.5-1-.5-1.7s0-1,.3-1.3c.2-.3.4-.6.7-.7.3-.2.6-.2,1-.2s.8.1,1.1.3c.3.2.5.5.6.8.1.3.2.7.2,1.1s0,.8-.2,1.1c-.1.3-.3.6-.6.8-.3.2-.6.3-1.1.3ZM92.1,87h1.2v1.2h-1.2v-1.2ZM93.3,88.7v4.5h-1.2v-4.5h1.2ZM90.3,90.1c0-.2,0-.3-.2-.4-.1,0-.3-.1-.5-.1s-.4,0-.5.1c-.1,0-.2.2-.2.3s0,.2.1.3c0,0,.2.1.4.2l.6.2c.5.1.8.3,1,.5s.4.5.4.8-.2.8-.5,1c-.3.2-.8.4-1.4.4s-1.1-.1-1.4-.4c-.3-.3-.5-.6-.5-1.1h1.2c0,.2,0,.3.2.4.1,0,.3.1.5.1s.5,0,.6-.1c.1,0,.2-.2.2-.3s0-.2-.1-.3c0,0-.2-.1-.4-.2l-.6-.2c-.5-.1-.8-.3-1-.5-.2-.2-.4-.5-.4-.8s.2-.7.5-1c.3-.3.8-.4,1.3-.4s1,.1,1.3.4c.3.3.5.6.5,1.1h-1.1ZM83.6,90.6h2.5c0-.3-.1-.6-.3-.7-.2-.2-.4-.3-.7-.3s-.6.1-.8.3c-.2.2-.2.6-.2,1.1s0,.9.2,1.1c.2.2.5.3.9.3s.5,0,.6-.1c.1,0,.2-.2.2-.4h1.2c0,.3-.1.5-.3.7-.2.2-.4.4-.7.5-.3.1-.7.2-1.1.2-.7,0-1.3-.2-1.7-.6-.4-.4-.6-1-.6-1.7s.2-1.3.6-1.8c.4-.4.9-.6,1.6-.6s.8,0,1.2.3c.3.2.6.5.7.8.2.3.3.8.3,1.3v.3h-3.7v-.8ZM80,92.4c.4,0,.6-.1.8-.4.2-.2.3-.6.3-1.1s0-.8-.3-1.1c-.2-.2-.4-.4-.8-.4s-.7.1-.8.4c-.2.2-.3.6-.3,1.1s0,.8.3,1.1c.2.2.5.4.8.4ZM79.6,93.4c-.6,0-1-.2-1.4-.6-.4-.4-.5-1-.5-1.8s0-1,.3-1.4c.2-.3.4-.6.7-.8.3-.2.6-.2,1-.2s.8.1,1.1.3.5.5.6.8.2.8.2,1.2,0,.8-.2,1.2c-.1.3-.3.6-.6.8-.3.2-.6.3-1.1.3ZM81,87h1.2v6.3h-1.2v-6.3Z"/>
  <path class="st1" d="M23.1,114.4h-1.6v1.6c-.1,0,0,0,0,0,0-.1.2-.2.3-.3.1,0,.3,0,.5,0,.3,0,.6,0,.8.3.2.2.3.4.3.8s0,.3,0,.5c0,.1-.1.3-.2.3,0,0-.2.2-.3.2-.1,0-.3,0-.4,0-.3,0-.5,0-.6-.1-.2,0-.3-.2-.4-.4h.1c.1,0,.2.2.4.3.1,0,.3.1.6.1s.5,0,.7-.2c.2-.2.2-.4.2-.6h0c0-.4,0-.6-.2-.7-.1-.2-.4-.2-.6-.2s-.2,0-.3,0c0,0-.1,0-.2,0,0,0-.1,0-.2.1,0,0-.1,0-.2.1h-.2s.1-1.9.1-1.9h1.8v.2ZM18.7,117.6c.3,0,.6-.1.7-.4.2-.2.2-.6.2-1.1v-.4c0-.5,0-.8-.2-1.1-.2-.2-.4-.4-.7-.4s-.6.1-.7.4c-.2.2-.2.6-.2,1.1v.4c0,.5,0,.8.2,1.1.2.2.4.4.7.4ZM18.7,117.8c-.4,0-.7-.1-.9-.4-.2-.3-.3-.8-.3-1.4s0-1.1.3-1.4c.2-.3.5-.4.9-.4s.7.1.9.4c.2.3.3.8.3,1.4s-.1,1.1-.3,1.4c-.2.3-.5.4-.9.4ZM15.2,117.6c.3,0,.6-.1.7-.4.2-.2.2-.6.2-1.1v-.4c0-.5,0-.8-.2-1.1-.2-.2-.4-.4-.7-.4s-.6.1-.7.4c-.2.2-.2.6-.2,1.1v.4c0,.5,0,.8.2,1.1.2.2.4.4.7.4ZM15.2,117.8c-.4,0-.7-.1-.9-.4-.2-.3-.3-.8-.3-1.4s0-1.1.3-1.4c.2-.3.5-.4.9-.4s.7.1.9.4c.2.3.3.8.3,1.4s-.1,1.1-.3,1.4c-.2.3-.5.4-.9.4ZM11.6,117.6c.3,0,.6-.1.7-.4.2-.2.2-.6.2-1.1v-.4c0-.5,0-.8-.2-1.1-.2-.2-.4-.4-.7-.4s-.6.1-.7.4c-.2.2-.2.6-.2,1.1v.4c0,.5,0,.8.2,1.1.2.2.4.4.7.4ZM11.6,117.8c-.4,0-.7-.1-.9-.4-.2-.3-.3-.8-.3-1.4s0-1.1.3-1.4c.2-.3.5-.4.9-.4s.7.1.9.4c.2.3.3.8.3,1.4s-.1,1.1-.3,1.4c-.2.3-.5.4-.9.4Z"/>
  <polygon class="st1" points="3.1 114.1 5.4 114.1 5.4 114.7 3.8 114.7 3.8 115.6 5.3 115.6 5.3 116.2 3.8 116.2 3.8 117.1 5.4 117.1 5.4 117.7 3.1 117.7 3.1 114.1"/>
  <path class="st1" d="M32.7,117.2c.2,0,.4,0,.5-.3.1-.2.2-.5.2-1s0-.8-.2-1c-.1-.2-.3-.3-.5-.3s-.4,0-.5.3c-.1.2-.2.5-.2,1s0,.8.2,1c.1.2.3.3.5.3ZM32.7,117.8c-.3,0-.6,0-.8-.2-.2-.1-.3-.4-.4-.6,0-.3-.1-.6-.1-1s0-.7.1-1,.2-.5.4-.6c.2-.1.5-.2.8-.2s.6,0,.8.2c.2.1.3.4.4.6s.1.6.1,1,0,.7-.1,1c0,.3-.2.5-.4.6-.2.1-.5.2-.8.2ZM28.6,117.2l1.2-1.2c.1-.1.2-.2.3-.3,0,0,.1-.2.2-.3,0,0,0-.2,0-.3,0-.2,0-.3-.1-.4,0,0-.2-.1-.4-.1s-.3,0-.4.1c0,0-.1.2-.1.4h-.7c0-.2,0-.4.2-.6.1-.2.2-.3.4-.4s.4-.1.6-.1.4,0,.6.1c.2,0,.3.2.4.4.1.2.2.4.2.6s0,.3,0,.4c0,.1-.1.3-.3.4-.1.1-.3.3-.5.5l-.8.8v-.2c0,0,1.7,0,1.7,0v.6h-2.5v-.5Z"/>
  <path class="st1" d="M97.9,120.1h7.3c.3,0,.5-.2.5-.5v-2.1h-4.3l2,1.9h-1l-2.4-2.2,2.1-2h-4.8v4.4c0,.3.2.5.5.5h0ZM105.2,111.7h-7.3c-.3,0-.5.2-.5.5v2.2h4.9l-2-1.9h1l2.4,2.2-2.1,2h4.3v-4.5c0-.3-.2-.5-.5-.5ZM97.9,111h7.3c.6,0,1.2.5,1.2,1.2v7.3c0,.6-.5,1.2-1.2,1.2h-7.3c-.6,0-1.2-.5-1.2-1.2v-7.3c0-.6.5-1.2,1.2-1.2h0Z"/>
  <path class="st1" d="M85.5,115.7c0-.6-.2-1.2-.5-1.7.7-.1,1.4-.3,1.9-.5.6.6.9,1.4,1,2.2h-2.3ZM85,118c.3-.5.5-1.1.5-1.7h2.3c0,.8-.4,1.6-1,2.2-.5-.2-1.1-.4-1.9-.5ZM84.7,118.4c.7.1,1.3.3,1.8.4-.9.8-2.1,1.3-3.4,1.5.5-.4,1.1-1.1,1.6-1.9ZM79.9,118.4c.5.8,1.2,1.5,1.7,1.9-1.4-.2-2.6-.7-3.4-1.5.5-.2,1.1-.3,1.8-.4h0ZM79.1,116.3c0,.6.2,1.2.5,1.7-.7.1-1.4.3-1.9.5-.5-.6-.9-1.4-1-2.2h2.3ZM79.6,114c-.3.5-.5,1.1-.5,1.7h-2.3c0-.8.4-1.6,1-2.2.5.2,1.2.4,1.9.5ZM79.9,113.6c-.7-.1-1.3-.2-1.8-.4.9-.8,2.1-1.3,3.4-1.5-.5.4-1.1,1.1-1.7,1.9h0ZM83.1,111.6c1.4.2,2.6.7,3.4,1.5-.5.2-1.1.3-1.8.4-.5-.8-1.2-1.5-1.6-1.9ZM82.6,113.7v-1.8c.4.4,1.1,1,1.6,1.7-.5,0-1,0-1.6,0h0ZM82.6,115.7v-1.5c.6,0,1.3,0,1.9-.1.3.5.5,1.1.5,1.6h-2.4ZM82.6,117.8v-1.5h2.4c0,.6-.2,1.1-.5,1.6-.6,0-1.2-.1-1.9-.1h0ZM82.6,120.1v-1.8c.5,0,1.1,0,1.6,0-.5.8-1.2,1.4-1.6,1.7h0ZM82,118.3v1.8c-.4-.4-1.1-1-1.6-1.7.5,0,1,0,1.6,0ZM82,116.3v1.5c-.6,0-1.3,0-1.9.1-.3-.5-.5-1.1-.5-1.6h2.4ZM82,114.2v1.5h-2.4c0-.6.2-1.1.5-1.6.6,0,1.2.1,1.9.1h0ZM82,111.9v1.8c-.5,0-1.1,0-1.6,0,.5-.8,1.2-1.4,1.6-1.7ZM82.3,111.1c-3.3,0-6.1,2.2-6.1,4.9s2.7,4.9,6.1,4.9,6.1-2.2,6.1-4.9-2.7-4.9-6.1-4.9Z"/>
  <path class="st1" d="M121,119.1v1.4c-1.2.5-3.3.4-4.2-.6l-.2-2.5c-1.3-1.6-1.8-3.3-1-5.2.3-.8.9-1.4,1.7-1.8,1.7-.8,3.8-.2,4.9,1.4.5.7.6,1.5.7,2.3,0,.3.2.7.3,1l.6,1.1-.8.3c-.1,0-.2.2-.2.3v1.3c0,.2,0,.4,0,.6h-1.3c-.2,0-.4,0-.4.3h0ZM121.6,120.7v-1.5s1.2,0,1.2,0c.4,0,.6-.4.6-.7,0-.5,0-1.1,0-1.6.3-.1.6-.2.9-.4.2-.1.3-.4.1-.6-.3-.6-.7-1.3-.9-2,0-1.1-.3-2.1-1-2.9-1.2-1.5-3.3-2-5.1-1.3-1,.4-1.8,1.2-2.2,2.2-.8,2-.3,3.9,1,5.6l.2,2.4c0,.3.5.6.7.7,1.2.7,3.2.8,4.5,0h0Z"/>
  <path class="st1" d="M123.8,89.2h.2l.3.5h-.2l-.3-.5ZM123.6,88.7h.3c0,0,.1,0,.2,0,0,0,.1,0,.1,0,0,0,0,.1,0,.2s0,.2,0,.2c0,0,0,0-.1,0,0,0-.1,0-.2,0h-.3v-.2h.3c0,0,.1,0,.1,0,0,0,0,0,0-.1s0,0,0-.1,0,0-.1,0h-.3v-.2ZM123.5,88.7h.2v1h-.2v-1ZM123.9,90c.2,0,.4,0,.5-.2.1-.1.2-.3.2-.6s0-.4-.2-.6c-.1-.1-.3-.2-.5-.2s-.4,0-.5.2c-.1.1-.2.3-.2.6s0,.3,0,.4c0,.1.2.2.3.3.1,0,.2,0,.4,0ZM123.9,90.2c-.2,0-.4,0-.5-.1-.1,0-.3-.2-.4-.3,0-.1-.1-.3-.1-.5s0-.4.1-.5c0-.1.2-.3.4-.3.1,0,.3-.1.5-.1s.4,0,.5.1c.1,0,.3.2.4.3,0,.1.1.3.1.5s0,.4-.1.5c0,.1-.2.3-.4.3-.1,0-.3.1-.5.1Z"/>
  <path class="st1" d="M7.2,129.3l.2.2-1.9,1.9-.2-.2-.2-.2,1.9-1.9.2.2ZM5.3,127.4l.2-.2,1.9,1.9-.2.2-.2.2-1.9-1.9.2-.2ZM7.2,129.3l.2-.2.2.2-.2.2-.2-.2Z"/>
  <path class="st1" d="M4,125.5v-.2c-.9,0-1.7.8-1.7,1.7h.5c0-.7.6-1.2,1.2-1.2v-.2ZM8.6,125.5v.2c.7,0,1.2.6,1.2,1.2h.5c0-.9-.8-1.7-1.7-1.7v.2ZM2.5,127.8h-.2c0,.9.8,1.7,1.7,1.7v-.5c-.7,0-1.2-.6-1.2-1.2h-.2ZM6.7,129.3v-.2h-2.8v.5h2.8v-.2ZM10.1,127h-.2v1.1h.5v-1.1h-.2ZM2.5,127.8h.2v-.8h-.5v.8h.2ZM4,125.5v.2h4.6v-.5H4v.2ZM6.7,129.5c.1,0,.2-.1.2-.2s-.1-.2-.2-.2v.5ZM9.8,128.1c0,.1.1.2.2.2s.2-.1.2-.2h-.5Z"/>
  <path class="st1" d="M18.6,128.3h67.7v.4H18.6v-.4ZM83.7,126h.4v3.9h2v.3h-2.4v-4.2ZM82.5,129h-1.9v-.3h1.9v.3ZM81.6,126.5h0l-1.3,3.8h-.4l1.5-4.2h.4l1.5,4.2h-.4l-1.3-3.8ZM75.9,126l1.6,3.6h0l1.6-3.6h.4v4.2h-.3v-3.4h0l-1.5,3.4h-.2l-1.5-3.4h0v3.4h-.3v-4.2h.4ZM73.1,130.2v-.3h1.7v.3h-1.7ZM73.1,126.3v-.3h1.7v.3h-1.7ZM74.1,130.2h-.4v-4.2h.4v4.2ZM72.3,130.2h-.4l-2.4-3.6h0v3.6h-.4v-4.2h.4l2.4,3.6h0v-3.6h.4v4.2ZM66.7,130.2v-.3h1.7v.3h-1.7ZM66.7,126.3v-.3h1.7v.3h-1.7ZM67.7,130.2h-.4v-4.2h.4v4.2ZM62.4,126l1.6,3.6h0l1.6-3.6h.4v4.2h-.3v-3.4h0l-1.5,3.4h-.2l-1.5-3.4h0v3.4h-.3v-4.2h.4ZM57,129.9c.4,0,.7,0,1-.2.2-.1.4-.4.5-.6.1-.3.2-.6.2-1s0-.7-.2-1c0-.3-.3-.5-.5-.6-.2-.1-.5-.2-.9-.2h-.9v3.6h.9ZM55.8,130.2v-4.2h1.3c.6,0,1.1.2,1.4.5.3.4.5.9.5,1.6s-.2,1.2-.5,1.6c-.3.4-.8.5-1.4.5h-1.3ZM54.9,130.2h-.4l-2.4-3.6h0v3.6h-.4v-4.2h.4l2.4,3.6h0v-3.6h.4v4.2ZM50.8,128.1c0-.6-.1-1.1-.4-1.4-.2-.3-.6-.5-1.1-.5s-.8.2-1.1.5c-.2.3-.3.8-.3,1.4s.1,1.1.3,1.4c.2.3.6.5,1.1.5s.8-.2,1.1-.5c.2-.3.4-.8.4-1.4ZM51.1,128.1c0,.7-.2,1.2-.5,1.6-.3.4-.7.6-1.3.6s-1-.2-1.3-.6c-.3-.4-.5-.9-.5-1.6s.2-1.2.5-1.6c.3-.4.7-.6,1.3-.6s1,.2,1.3.6c.3.4.5.9.5,1.6ZM44.6,126l1.3,2.2h0l1.3-2.2h.4l-1.5,2.5v1.8h-.3v-1.8l-1.5-2.5h.4ZM41.5,126h2.4v.3h-2v1.7h1.9v.3h-1.9v1.7h2.1v.3h-2.4v-4.2ZM39.5,127.9c.3,0,.6,0,.7-.2.2-.1.2-.3.2-.6s0-.3,0-.4c0-.1-.1-.2-.3-.3-.1,0-.3-.1-.6-.1h-1.1v1.6h1.1ZM39.6,129.9c.3,0,.5,0,.6-.1.1,0,.2-.2.3-.3,0-.1,0-.3,0-.4s0-.3-.1-.4c0-.1-.2-.2-.3-.3-.1,0-.3-.1-.6-.1h-1.2v1.7h1.1ZM38,126h1.5c.3,0,.5,0,.7.1.2,0,.3.2.4.4s.1.4.1.6,0,.3-.1.5c0,.1-.2.2-.3.3-.1,0-.2.1-.4.1h0c.1,0,.2,0,.3.1.1,0,.2.1.3.2.1,0,.2.2.2.3,0,.1,0,.3,0,.5s0,.4-.1.6c0,.2-.2.3-.4.4-.2,0-.5.1-.8.1h-1.5v-4.2ZM32.5,126h2.4v.3h-2v1.7h1.9v.3h-1.9v1.7h2.1v.3h-2.4v-4.2ZM31.5,127.2c0-.3-.2-.6-.4-.7-.2-.2-.5-.2-.8-.2s-.8.2-1,.5c-.2.3-.4.8-.4,1.4s.1,1.1.4,1.4c.2.3.6.5,1,.5s.6,0,.8-.2c.2-.2.3-.4.4-.7h.4c0,.4-.2.7-.5,1-.3.2-.6.3-1.1.3s-1-.2-1.3-.6c-.3-.4-.4-.9-.4-1.6s.1-1.2.4-1.6c.3-.4.7-.6,1.3-.6s.5,0,.8.1c.2,0,.4.2.5.4.1.2.2.4.3.7h-.4ZM27.6,129h-1.9v-.3h1.9v.3ZM26.7,126.5h0l-1.3,3.8h-.4l1.5-4.2h.4l1.5,4.2h-.4l-1.3-3.8ZM23.7,128.3c.3,0,.5,0,.7-.1.2,0,.3-.2.3-.3,0-.2,0-.3,0-.5s0-.4,0-.5c0-.1-.2-.3-.3-.3-.2,0-.4-.1-.7-.1h-1v2h1ZM22.3,126h1.4c.3,0,.6,0,.8.2.2.1.4.3.5.4,0,.2.1.4.1.7s0,.5-.1.7c0,.2-.2.3-.5.5-.2.1-.5.2-.8.2h-1.1v1.6h-.4v-4.2ZM21.4,126.9c0-.2-.1-.4-.3-.5-.2,0-.4-.1-.7-.1s-.6,0-.8.2c-.2.1-.3.3-.3.6s0,.3,0,.4c0,0,.1.2.2.2,0,0,.2.1.3.1.1,0,.2,0,.3,0h.5c.1.2.2.2.4.2s.3.1.4.2c.1,0,.2.2.3.3,0,.1.1.3.1.5s0,.4-.2.6c-.1.2-.3.3-.5.4-.2.1-.5.2-.9.2s-.8,0-1.1-.3c-.2-.2-.4-.4-.4-.8h.4c0,.2,0,.3.2.4.1.1.2.2.4.2.2,0,.3,0,.5,0,.4,0,.7,0,.9-.2.2-.1.3-.4.3-.7s0-.3-.1-.4c0-.1-.2-.2-.3-.2-.1,0-.3-.1-.5-.2l-.6-.2c-.3,0-.6-.2-.8-.4-.2-.2-.3-.4-.3-.7s0-.4.2-.6c.1-.2.3-.3.5-.4.2,0,.5-.1.8-.1s.5,0,.7.1c.2,0,.4.2.5.3.1.1.2.3.2.5h-.4Z"/>
  <path class="st1" d="M124.2,129.6c-.2,0-.4,0-.5,0-.2,0-.3-.2-.4-.3,0-.1-.1-.3-.1-.4h.3c0,.2,0,.3.2.4.1,0,.3.1.5.1s.5,0,.6-.2c.1-.2.2-.3.2-.6s0-.3,0-.4c0-.1-.1-.2-.2-.3-.1,0-.3-.1-.4-.1-.2,0-.3,0-.4,0-.1,0-.2.1-.3.3h-.3l.2-1.8h1.6v.2h-1.4v1.3c-.1,0-.1,0-.1,0,0,0,.1-.2.3-.2.1,0,.2,0,.4,0,.2,0,.4,0,.6.1.2,0,.3.2.4.4,0,.2.1.3.1.5s0,.4-.1.5c0,.2-.2.3-.4.4-.2,0-.3.1-.6.1ZM121.7,127.7c.2,0,.4,0,.5-.2.1-.1.2-.3.2-.5s0-.3-.2-.5c-.1-.1-.3-.2-.5-.2s-.4,0-.5.2c-.1.1-.2.3-.2.5s0,.3.2.5c.1.1.3.2.5.2ZM121.7,129.3c.3,0,.5,0,.6-.2.1-.1.2-.3.2-.5s0-.4-.2-.5c-.1-.1-.4-.2-.6-.2s-.5,0-.6.2c-.1.1-.2.3-.2.5s0,.4.2.5c.1.1.3.2.6.2ZM121.7,129.6c-.4,0-.7,0-.8-.2-.2-.2-.3-.4-.3-.6,0-.1,0-.3,0-.4,0-.1.1-.2.2-.3,0,0,.2-.1.3-.1h0c-.2,0-.3-.1-.4-.3,0-.1-.1-.3-.1-.5s0-.3.1-.4c0-.1.2-.2.3-.3.1,0,.3-.1.6-.1s.4,0,.5.1c.1,0,.3.2.3.3,0,.1.1.3.1.4,0,.2,0,.3-.1.5,0,.1-.2.2-.4.3h0c.1,0,.2,0,.3.2s.2.2.2.3c0,.1,0,.2,0,.4s0,.3-.1.5c0,.1-.2.2-.4.3s-.4.1-.6.1ZM119.2,129.6c-.2,0-.4,0-.5,0-.2,0-.3-.2-.4-.3s-.1-.3-.1-.4h.3c0,.2,0,.3.2.4.1,0,.3.1.5.1s.5,0,.6-.2c.1-.2.2-.3.2-.6s0-.3,0-.4c0-.1-.1-.2-.2-.3-.1,0-.3-.1-.4-.1-.2,0-.3,0-.4,0-.1,0-.2.1-.3.3h-.3l.2-1.8h1.6v.2h-1.4v1.3c-.1,0-.1,0-.1,0,0,0,.1-.2.3-.2.1,0,.2,0,.4,0,.2,0,.4,0,.6.1.2,0,.3.2.4.4,0,.2.1.3.1.5s0,.4-.1.5c0,.2-.2.3-.4.4-.2,0-.3.1-.6.1ZM117.3,126.5l-1.5,2.2h0c0-.1,2.2-.1,2.2-.1v.2h-2.4v-.2l1.6-2.3h.3v3.2h-.3v-3h0ZM114.2,129.3c.3,0,.5-.1.7-.3.1-.2.2-.6.2-1.1s0-.8-.2-1.1c-.1-.2-.3-.3-.7-.3s-.5.1-.6.3c-.1.2-.2.6-.2,1.1s0,.8.2,1.1c.1.2.3.3.7.3ZM114.2,129.6c-.3,0-.5,0-.6-.2-.2-.1-.3-.3-.4-.5,0-.2-.1-.6-.1-.9s0-.7.1-.9c0-.2.2-.4.4-.5.2-.1.4-.2.6-.2s.5,0,.6.2c.2.1.3.3.4.5,0,.2.1.5.1.9s0,.7-.1.9c0,.2-.2.4-.4.5-.2.1-.4.2-.6.2ZM111.7,129.3c.3,0,.5-.1.7-.3.1-.2.2-.6.2-1.1s0-.8-.2-1.1c-.1-.2-.3-.3-.7-.3s-.5.1-.6.3c-.1.2-.2.6-.2,1.1s0,.8.2,1.1c.1.2.3.3.7.3ZM111.7,129.6c-.3,0-.5,0-.6-.2-.2-.1-.3-.3-.4-.5,0-.2-.1-.6-.1-.9s0-.7.1-.9c0-.2.2-.4.4-.5.2-.1.4-.2.6-.2s.5,0,.6.2c.2.1.3.3.4.5,0,.2.1.5.1.9s0,.7-.1.9c0,.2-.2.4-.4.5-.2.1-.4.2-.6.2ZM110.3,128.2h-1.2v-.2h1.2v.2ZM107.6,128.2h-.8v1.3h-.3v-3.2h1.1c.3,0,.5,0,.6.1.2,0,.3.2.3.3,0,.1.1.3.1.5s0,.3,0,.4,0,.2-.2.3c0,0-.2.1-.3.2-.1,0-.3,0-.5,0ZM107.6,128c.2,0,.4,0,.5,0s.2-.1.2-.2c0-.1,0-.2,0-.4s0-.3,0-.4c0-.1-.1-.2-.2-.2-.1,0-.3,0-.5,0h-.8v1.4h.8ZM107.9,128l.8,1.5h-.3l-.8-1.4h.3ZM105,129.6c-.2,0-.4,0-.5,0-.2,0-.3-.2-.4-.3,0-.1-.1-.3-.1-.5h.3c0,.1,0,.3.1.4,0,0,.2.2.3.2.1,0,.2,0,.4,0,.2,0,.4,0,.6-.2.1-.1.2-.3.2-.6s0-.4-.2-.5c-.1-.1-.3-.2-.6-.2h-.4v-.2s1.1-1.2,1.1-1.2h0c0,.1-1.7.1-1.7.1v-.2h1.9v.2l-1,1.1h0c.2,0,.4,0,.6,0,.1,0,.3.1.3.2,0,0,.1.2.2.3,0,.1,0,.2,0,.3,0,.2,0,.4-.1.5,0,.1-.2.3-.4.3-.2,0-.3.1-.6.1ZM103,126.5l-1.5,2.2h0c0-.1,2.2-.1,2.2-.1v.2h-2.4v-.2l1.6-2.3h.3v3.2h-.3v-3h0Z"/>
  <g class="st8">
    <path class="st1" d="M100,124.8h0c-1.8-.1-3.3,1.4-3.3,3.2h.3c0-1.7,1.4-3.1,3.1-3.1h0ZM126.7,124.8h0c1.7.1,3.1,1.5,3.1,3.2h.3c0-1.8-1.5-3.3-3.3-3.3h0ZM129.9,128h-.1c0,1.7-1.4,3.1-3.1,3.1h0v.3c1.8,0,3.3-1.5,3.3-3.3h-.1ZM100,131.2h0c-1.7-.1-3.1-1.5-3.1-3.2h-.3c0,1.8,1.5,3.3,3.3,3.3h0ZM126.7,131.2h0c0-.1-26.8-.1-26.8-.1h0v.3h26.8ZM100,124.8h0c0,.1,26.8.1,26.8.1h0v-.3h-26.8Z"/>
  </g>
</svg>