<?xml version="1.0" encoding="UTF-8"?>
<svg id="Layer_1" xmlns="http://www.w3.org/2000/svg" xmlns:xlink="http://www.w3.org/1999/xlink" version="1.1" viewBox="0 0 498.7 62.9">
  <!-- Generator: Adobe Illustrator 30.5.1, SVG Export Plug-In . SVG Version: 2.1.4 Build 3)  -->
  <defs>
    <style>
      .st0 {
        fill: none;
      }

      .st1 {
        fill: #5b5b5b;
      }

      .st2, .st3 {
        isolation: isolate;
      }

      .st4, .st3 {
        fill: #5b5b5b;
      }

      .st3 {
        font-family: Akkurat, Akkurat;
        font-size: 11.1px;
      }

      .st5 {
        clip-path: url(#clippath);
      }
    </style>
    <clipPath id="clippath">
      <path class="st0" d="M343.3,7.2h131c13.4,0,24.2,10.8,24.2,24.2s-10.8,24.2-24.2,24.2h-131c-13.4,0-24.2-10.8-24.2-24.2s10.8-24.2,24.2-24.2Z"/>
    </clipPath>
  </defs>
  <g>
    <path class="st4" d="M58.9,50.1V11.7h7.7v38.4h-7.7Z"/>
    <path class="st4" d="M125.2,11.7l-16.9,28c-5.1,8.4-8.4,10.4-21.4,10.4h-14.9V11.7h7.7v33.7c11.4,0,15.2.5,22.8-11.5l13.1-22.2h9.5Z"/>
    <path class="st4" d="M175.2,30.9c0,10.9-4.1,19.5-25.8,19.5h-1.1c-21.7,0-25.8-8.7-25.8-19.5s4.1-19.5,25.8-19.5h1.1c21.7,0,25.8,8.7,25.8,19.5ZM166.3,30.9c0-13.9-7.6-14.8-15.5-14.8h-3.9c-7.8,0-15.5.8-15.5,14.8s7.8,15.2,15.5,15.2h3.9c7.9,0,15.5-1.2,15.5-15.2Z"/>
    <path class="st4" d="M227,50.1c-3.3,0-2.6,0-4.8,0-3.8,0-7.7-2.2-12.5-7.6l-2.5-2.9h-20.8v10.4h-8V11.7h30.9c12.4,0,15.3,4.8,15.1,14.1-.1,4.9-1.4,11-9,13.2l11.8,11.1ZM217.1,25.9c0-6-1.1-9.4-8.3-9.4h-22.5v17.5h22.5c4,0,8.3-1.2,8.3-8Z"/>
    <path class="st4" d="M269.3,11.7l-19.6,24.7v13.7h-7.6v-13.5l-20.1-24.9h8.7l15.3,19.2,14.6-19.2h8.7Z"/>
    <g>
      <path class="st4" d="M0,50.2l17-28.2c5.1-8.5,8.5-10.5,21.6-10.5h15v38.7h-7.8v-32c-14.4,0-17.2-1.6-24.1,9.6l-13.2,22.4H0Z"/>
      <path class="st4" d="M36.2,42.2v8h-14l1.3-2.6c1-1.8,1.9-3.4,3.3-4.2,0,0,1.7-1.2,4.7-1.2h4.7Z"/>
    </g>
  </g>
  <g>
    <g>
      <path class="st4" d="M401.2,43.7l8.3-13.8c2.5-4.2,4.2-5.1,10.5-5.1h7.3v18.9h-3.8v-15.6c-7,0-8.4-.8-11.8,4.7l-6.4,10.9s-4.1,0-4.1,0Z"/>
      <path class="st4" d="M418.7,39.8v3.9h-6.8l.7-1.3c.5-.8.9-1.7,1.6-2,0,0,.8-.6,2.3-.6h2.3Z"/>
    </g>
    <g class="st2">
      <text class="st3" transform="translate(466.3 40)"><tspan x="0" y="0">©</tspan></text>
    </g>
    <g>
      <path class="st4" d="M434.3,20.3v12.3h-1.8v-12.3h-17.7v-1.4h23.6v1.4h-4.2,0Z"/>
      <path class="st4" d="M440.7,30.6v-11.7h9.4v1.3h-7.6v3.6h6.7v1.4h-6.7v4h7.6v1.3h-9.4Z"/>
      <path class="st4" d="M462.8,26.9c0,.6-.2,1.1-.4,1.5s-.6.8-1,1.2-1,.6-1.6.9c-.7.2-1.4.4-2.1.4s-1.4-.1-2.1-.3c-.7-.2-1.2-.5-1.8-1-.4-.3-.7-.6-.9-1-.2-.4-.4-.7-.5-1.2-.1-.4-.2-.8-.2-1.3,0-.5,0-.9,0-1.4s0-.9,0-1.4c0-.5.1-.9.2-1.3.1-.4.3-.8.5-1.2.2-.4.5-.7.9-1,.5-.4,1.1-.7,1.8-1s1.3-.3,2.1-.3,1.5.1,2.1.4c.7.2,1.2.5,1.6.9.4.4.7.7,1,1.2s.4,1,.4,1.5h-1.8c0-.3-.1-.6-.2-.9s-.3-.5-.6-.7c-.3-.2-.6-.5-1.1-.6s-.9-.2-1.5-.2-1,0-1.4.2-.8.4-1.2.7c-.3.2-.5.5-.7.8s-.3.6-.4,1c0,.4-.1.7-.1,1v2c0,.4,0,.7.1,1s.2.7.4,1,.4.6.7.8c.4.3.7.5,1.2.7s.9.2,1.4.2,1,0,1.5-.2.8-.4,1.1-.6c.2-.2.4-.5.6-.8.1-.3.2-.6.2-.9h1.8,0Z"/>
      <path class="st4" d="M474.1,30.6v-5.4h-6.8v5.4h-1.8v-11.7h1.8v4.9h6.8v-4.9h1.8v11.7h-1.8Z"/>
      <path class="st4" d="M432.5,43.7v-11.7h1.8v10.3h6.8v1.4h-8.5Z"/>
      <path class="st4" d="M451.7,43.7l-1.2-2.8h-6.1l-1.1,2.8h-1.8l5-11.7h2.1l5,11.7h-1.8,0ZM447.5,33.5l-2.5,6.1h5l-2.5-6.1Z"/>
      <path class="st4" d="M465.9,40.4c0,.5-.1.9-.3,1.2-.2.4-.5.7-.8,1-.4.4-.9.6-1.5.8-.6.2-1.3.3-2,.3h-5.7v-11.7h5.6c.7,0,1.3.1,1.9.3s1.1.5,1.5.8c.3.2.5.5.7.8s.2.7.2,1.1-.2,1.1-.5,1.6-.8.8-1.5,1c.4.1.7.2,1,.4.3.2.5.4.7.7.2.2.4.5.5.8s.2.6.2.9h0ZM463.8,35.1c0-.3,0-.6-.2-.8-.1-.2-.3-.4-.6-.6-.2-.1-.5-.3-.8-.4-.3,0-.6-.1-1-.1h-3.9v3.7h3.9c.7,0,1.3-.1,1.8-.4.5-.3.7-.8.7-1.4h0ZM464.1,40.3c0-.3,0-.6-.2-.9-.1-.2-.4-.5-.6-.6s-.6-.3-.9-.4c-.4-.1-.7-.1-1.1-.1h-4v4.1h3.9c.4,0,.7,0,1.1-.1.4,0,.6-.2.9-.4s.5-.4.6-.6c.1-.2.2-.6.2-.9h0Z"/>
    </g>
    <path class="st4" d="M394.5,43.7s11.6-18.1,12.6-19.6c1-1.5,2.4-3.8,7.7-3.8v-1.4s-4.7-.3-7.4,2.8c-2.7,3.1-14.5,21.9-14.5,21.9h1.7Z"/>
  </g>
  <path class="st4" d="M292.8,0c.3,20.3.3,42.6,0,62.9-.3-20.3-.3-42.6,0-62.9h0Z"/>
  <g class="st5">
    <path class="st1" d="M343.3,7.2v-.2c-13.5,0-24.4,10.9-24.4,24.4h.5c0-13.2,10.7-24,24-24v-.2ZM474.2,7.2v.2c13.2,0,24,10.7,24,24h.5c0-13.5-10.9-24.4-24.4-24.4v.2ZM498.4,31.4h-.2c0,13.2-10.7,24-24,24v.5c13.5,0,24.4-10.9,24.4-24.4h-.2ZM343.3,55.6v-.2c-13.2,0-24-10.7-24-24h-.5c0,13.5,10.9,24.4,24.4,24.4v-.2ZM474.2,55.6v-.2h-131v.5h131v-.2ZM343.3,7.2v.2h131v-.5h-131v.2Z"/>
  </g>
  <path class="st1" d="M349.9,22.1h26.2c.1,0,.2.1.2.2s-.1.2-.2.2h-26.2c-1.4,0-2.5,1.1-2.5,2.5v1.3c0,.1-.1.2-.2.2s-.2-.1-.2-.2v-1.3c0-1.4-1.1-2.5-2.5-2.5h-2.3c-.1,0-.2-.1-.2-.2s.1-.2.2-.2h2.3c1.4,0,2.5-1.1,2.5-2.5v-1.3c0-.1.1-.2.2-.2s.2.1.2.2v1.3c0,1.4,1.1,2.5,2.5,2.5Z"/>
  <path class="st1" d="M349.9,39.3h26.2c.1,0,.2.1.2.2s-.1.2-.2.2h-26.2c-1.4,0-2.5,1.1-2.5,2.5v1.3c0,.1-.1.2-.2.2s-.2-.1-.2-.2v-1.3c0-1.4-1.1-2.5-2.5-2.5h-2.3c-.1,0-.2-.1-.2-.2s.1-.2.2-.2h2.3c1.4,0,2.5-1.1,2.5-2.5v-1.3c0-.1.1-.2.2-.2s.2.1.2.2v1.3c0,1.4,1.1,2.5,2.5,2.5Z"/>
  <path class="st1" d="M339.9,30.4h26.2c.1,0,.2.1.2.2s-.1.2-.2.2h-26.2c-1.4,0-2.5,1.1-2.5,2.5v1.3c0,.1-.1.2-.2.2s-.2-.1-.2-.2v-1.3c0-1.4-1.1-2.5-2.5-2.5h-2.3c-.1,0-.2-.1-.2-.2s.1-.2.2-.2h2.3c1.4,0,2.5-1.1,2.5-2.5v-1.3c0-.1.1-.2.2-.2s.2.1.2.2v1.3c0,1.4,1.1,2.5,2.5,2.5Z"/>
</svg>