<?xml version="1.0" encoding="UTF-8"?>
<svg id="Layer_1" xmlns="http://www.w3.org/2000/svg" version="1.1" viewBox="0 0 251 79.4">
  <!-- Generator: Adobe Illustrator 30.4.0, SVG Export Plug-In . SVG Version: 2.1.4 Build 226)  -->
  <defs>
    <style>
      .st0 {
        fill: #fff;
      }

      .st1 {
        fill: #8aa56e;
      }
    </style>
  </defs>
  <path class="st0" d="M64.2,55.6v-31h6.2v31h-6.2Z"/>
  <path class="st0" d="M117.8,24.5l-13.6,22.6c-4.1,6.8-6.8,8.4-17.3,8.4h-12v-31h6.2v27.2c9.2,0,12.3.4,18.4-9.3l10.6-17.9h7.7Z"/>
  <path class="st0" d="M158.2,40.1c0,8.8-3.3,15.8-20.9,15.8h-.9c-17.5,0-20.9-7-20.9-15.8s3.3-15.8,20.9-15.8h.9c17.5,0,20.9,7,20.9,15.8ZM151,40.1c0-11.3-6.2-11.9-12.5-11.9h-3.2c-6.3,0-12.5.7-12.5,11.9s6.3,12.3,12.5,12.3h3.2c6.4,0,12.5-1,12.5-12.3Z"/>
  <path class="st0" d="M200,55.6c-2.7,0-2.1,0-3.9,0-3.1,0-6.2-1.8-10.1-6.1l-2.1-2.3h-16.8v8.4h-6.5v-31h25c10,0,12.4,3.9,12.2,11.4-.1,3.9-1.1,8.9-7.3,10.6l9.5,9ZM192,36.1c0-4.8-.9-7.6-6.7-7.6h-18.1v14.1h18.1c3.2,0,6.7-1,6.7-6.5Z"/>
  <path class="st0" d="M234.2,24.5l-15.9,19.9v11.1h-6.1v-10.9l-16.2-20.1h7l12.4,15.5,11.8-15.5h7Z"/>
  <g>
    <path class="st0" d="M16.6,55.7l13.7-22.8c4.1-6.9,6.9-8.5,17.4-8.5h12.1v31.3h-6.3v-25.8c-11.6,0-13.9-1.3-19.5,7.7l-10.7,18.1h-6.8Z"/>
    <path class="st1" d="M45.9,49.2v6.5h-11.3l1.1-2.1c.8-1.4,1.5-2.8,2.7-3.4,0,0,1.4-.9,3.8-.9h3.8Z"/>
  </g>
</svg>