<?xml version="1.0" encoding="UTF-8"?>
<svg id="Layer_1" xmlns="http://www.w3.org/2000/svg" xmlns:xlink="http://www.w3.org/1999/xlink" version="1.1" viewBox="0 0 430.4 354.7">
  <!-- Generator: Adobe Illustrator 30.6.0, SVG Export Plug-In . SVG Version: 2.1.4 Build 109)  -->
  <defs>
    <style>
      .st0 {
        fill: none;
      }

      .st1 {
        fill: #ed9482;
      }

      .st2 {
        fill: #2c3d69;
      }

      .st3 {
        clip-path: url(#clippath-1);
      }

      .st4 {
        fill: #287f82;
      }

      .st5 {
        fill: #30261c;
      }

      .st6 {
        fill: #8c4e34;
      }

      .st7 {
        fill: #ee9482;
      }

      .st8 {
        fill: #fbe6df;
      }

      .st9 {
        fill: #efa1b6;
      }

      .st10 {
        fill: #3d3479;
      }

      .st11 {
        clip-path: url(#clippath);
      }
    </style>
    <clipPath id="clippath">
      <circle class="st8" cx="215.2" cy="192.1" r="142.1" transform="translate(-72.8 208.4) rotate(-45)"/>
    </clipPath>
    <clipPath id="clippath-1">
      <circle class="st0" cx="217.1" cy="-351.9" r="140.2"/>
    </clipPath>
  </defs>
  <g>
    <circle class="st8" cx="215.2" cy="192.1" r="142.1" transform="translate(-72.8 208.4) rotate(-45)"/>
    <g class="st11">
      <g>
        <g>
          <path class="st4" d="M322.3,326.3l-110.1,19.8-123.4-19.8s5.5-56.2,30.9-74.4c1.3-.9,2.6-1.8,3.9-2.6,25.3-16.2,61.1-22.5,61.1-22.5l51.6,2.2s25.2,4.6,45.9,16.7c2.1,1.2,4.1,2.5,6.1,3.9,21.4,15,34,76.8,34,76.8Z"/>
          <g>
            <path class="st5" d="M194.8,198s-1.4,22.1-12.7,12.5c-8.3-7-2.1-12.9-10.6-20.5-3.5-3.1-13.9-8.7-11-20,2.9-11.3,10.2-12.3,5.3-17.4-4.9-5.1-13.2-17.7,2.1-29.2,15.3-11.5-.2-24.7,19.2-30.8,19.4-6.1,27.7,1.8,43.7-6.3,16-8,31-10.6,41.4-4,14.3,9.1-.6,39.6-12.4,40.4-11.8.8-65.1,75.3-65.1,75.3Z"/>
            <g>
              <path class="st7" d="M236.9,215.9l-.6,13c-1.6,1.2-3.2,2.2-4.7,3-23.2,12.6-46.9-5.2-46.9-5.2l1.9-45.2,44.3,30.2,6,4.1Z"/>
              <path class="st7" d="M236.9,215.9l-.6,13c-1.6,1.2-3.2,2.2-4.7,3-18.9-8.4-32.1-29.2-32.1-29.2l31.4,9.1,6,4.1Z"/>
            </g>
            <path class="st7" d="M255.6,158.9s7.8-8.4,11.6.5c3.8,8.9-.2,26.5-11.3,23.1l-.3-23.6Z"/>
            <path class="st5" d="M264,118.4s8.5,3.4,4.4,13c-4.1,9.6-3.8,11.6-2.7,17.6,1.1,6-3.9,10.7-5.6,10-1.7-.7-16.4-45.7,4-40.7Z"/>
            <path class="st7" d="M262.2,189.9s-1.1,26.9-29.1,25.7c-27.8-1.2-45.9-23.9-46.8-24.9,0,0,0,0,0,0v-5.7c0,0-.4-29.4-.4-29.4l-.2-15.7s-2.4-28.4,24.7-32.4c19.8-2.9,38.1,1.1,46.9,11.7.3.3.6.7.8,1.1,2.8,3.7,4.4,8.2,4.7,13.4l-.3,28.2v6.9c0,0-.3,21.2-.3,21.2Z"/>
            <path class="st5" d="M241.1,183.4c-1.2,0-2.6,0-4.2-.4-8-1.7-13.3-8.8-13.5-9.1-.3-.5-.2-1.1.2-1.4.5-.3,1.1-.2,1.4.2,0,0,5.1,6.8,12.2,8.3,7.1,1.5,10.2-2.7,10.2-2.7.3-.5,1-.6,1.4-.2.5.3.6,1,.2,1.4-.1.2-2.7,3.7-8.2,3.9Z"/>
            <path class="st6" d="M242.2,189.5c.5-.3.8-.5.9-.5.6-.4.8-1.3.3-1.9-.4-.6-1.3-.8-1.9-.3-.2.1-4.2,2.9-8.7.6-.7-.3-1.5,0-1.8.6-.3.7,0,1.5.6,1.8,4.6,2.4,8.9.7,10.7-.3Z"/>
            <path class="st5" d="M243.4,170.7c-2.5-.4-5.3-1.4-6.8-2-.6-.2-.8-.9-.6-1.4.2-.6.9-.9,1.4-.6,4.2,1.7,8.7,2.6,9.4,1.9h0s0,0,0-.3c-2.1-9.3-6.9-10.4-6.9-10.4-.5-.1-.9-.6-.9-1.1l.3-8.6c0-.6.5-1.1,1.1-1.1.6,0,1.1.5,1.1,1.1l-.2,7.8c1.8.8,5.8,3.4,7.7,11.8.3,1.4-.3,2.1-.7,2.4-1,.8-2.8.8-4.8.5Z"/>
            <path class="st5" d="M210,131.9h0c.5,3.4,3.6,5.9,7,5.5,2-.2,4.3-.4,6.7-.2,3.3.3,6.2-2.3,6.3-5.7h0s-12.2-4.9-20,.4Z"/>
            <path class="st5" d="M260.4,135.1h0c-.5,3.3-3.5,5.7-6.9,5.2-1.9-.3-4.2-.4-6.5-.3-3.2.2-6-2.3-6-5.6h0s11.8-4.6,19.4.7Z"/>
            <path class="st5" d="M258.1,120.1c-4.3-1.7-7.6-.4-14.5,2.3-10.1,3.9-21-.5-30.6-5.9-9.6-5.4-15.7,1.3-12.6,6,3.1,4.7,2.6,8.4-1.3,14-3.9,5.7,6.6,8.8.5,13.1-2.6,1.8-2.5,4.7-1.6,7.4,1,3-1.7,5.8-4.8,5.1h0c-3.2-.9-7.4-6.8-7.4-6.8l-8.5-20.2s7.4-27.6,34.5-31.6c19.8-2.9,38.1,1.1,46.9,11.7.3.3-.9,4.3-.6,4.7Z"/>
            <g>
              <path class="st5" d="M223.3,152.6c-.1,2.7-1.4,4.8-2.9,4.8-1.5,0-2.6-2.3-2.5-5,.1-2.7,1.4-4.8,2.9-4.8,1.5,0,2.6,2.3,2.5,5Z"/>
              <path class="st5" d="M249.9,153.3c-.1,2.7-1.4,4.8-2.9,4.8-1.5,0-2.6-2.3-2.5-5,.1-2.7,1.4-4.8,2.9-4.8,1.5,0,2.6,2.3,2.5,5Z"/>
            </g>
            <path class="st5" d="M195.5,180.1c-.1.3-4,8.4-9.2,10.6,0,0,0,0,0,0v-5.7c0,0,4.4-.6,9.3-4.9Z"/>
            <path class="st7" d="M191.4,161.1s-10.2-14.9-18.5-3.9c-6.9,9.1,4.4,34,17.6,26.2l.9-22.3Z"/>
            <path class="st5" d="M189.1,179s0,0,.1,0c.6,0,1.1-.6,1-1.2-.8-12.4-11-17.1-11.4-17.2-.6-.3-1.2,0-1.5.6-.3.6,0,1.2.6,1.5h0c.4.2,9.4,4.4,10.1,15.4,0,.6.5,1,1.1,1Z"/>
            <path class="st5" d="M179.1,171.9c.2,0,.5,0,.7-.2,1-.7,4-2.5,5.9-2,.6.2,1.2-.2,1.4-.7.2-.6-.2-1.2-.7-1.4-3.3-1-7.4,2-7.9,2.3-.5.4-.6,1.1-.2,1.6.2.3.5.4.8.4Z"/>
          </g>
        </g>
        <path class="st2" d="M185.1,218.3s8,14.2,31.3,18.2l-15.6,20-28.9-26.8,13.3-11.4Z"/>
        <path class="st2" d="M236.8,219.5s.5,10.6-15.1,17l15.1,16.7,12.1-21.2-12.1-12.5Z"/>
        <path class="st2" d="M156.3,326.3h-67.4s5.5-56.2,30.9-74.4c1.3-.9,2.6-1.8,3.9-2.6,9.1,8.1,34.4,34.5,32.7,77Z"/>
        <path class="st2" d="M298.5,326.3c.9-37.4-10.1-67-16.3-80.7,2.1,1.2,4.1,2.5,6.1,3.9,21.4,15,34,76.8,34,76.8h-23.9Z"/>
      </g>
    </g>
  </g>
  <g class="st3">
    <g>
      <g>
        <path class="st1" d="M251.7-273.9c6.9,17.8,32.9,80.4,47,125.3,9.5,30.1,13.1,55.4,15.2,62.1,0,0-71.7-23-87.8-23.1-24.9,0-64.7,51.8-54.9,58.3,15.4,10.2,88.6,45,147.2,55.9,31.8,5.9,91.7-34.5,87-66.6-6.6-45.1-88.2-164-119.2-197.7-16.1-17.5-42.8-36-34.4-14.2Z"/>
        <path class="st9" d="M409.6-52.3c-1.5,32.5-42.1,59.8-65.7,61.3-40.7,2.5-162.6-33.1-162.6-33.1l47.4-91.3s83,28.2,85.1,29h0c-.7-2.5-21.2-79.3-30.3-104.8-.5-1.4-1.1-2.8-1.6-4.4-2.6-7.1-6.2-16.4-10.2-26.4h0c-2.2-5.6-4.5-11.5-6.8-17.2h0c-10-24.9-19.8-48.6-19.8-48.6,14,2.3,27.8,9.6,50.4,33.4,22.6,23.7,116.7,148.5,114.2,202.1Z"/>
      </g>
      <g>
        <path class="st1" d="M341.7-81.5c-6.4,0-44.8-10.2-50.4-4.9-34.1,32.1-44.9,25.7-52.1,29.8C183.1-24.3,108.1,13.7,81.3,13.9c-40.6.3-56.8-33.7-50-65.9,13.3-63.6,99.2-187.7,138-220.7,20.6-17.5,19,8.9,10.4,37.5-5,16.8-13.7,41.7-22.6,66.2-7.9,21.8-28.8,77.6-29.2,78.9h0c0,.1,0,.2,0,.2,0,.1.1.2.4,0,1.8-.3,49.8-23,98.1-35.4,17-4.4,52.5-10.6,65.2-5,7.6,3.4,7.7,7.9,7.7,7.9,0,0,6.1-.6,12.4,4.7,4.2,3.5,5.6,8.4,5.6,8.4,0,0,6.6.9,10.1,4.8,4.1,4.6,4.5,9.4,4.5,9.4,8.9,2.4,9.9,13.5,9.9,13.5Z"/>
        <g>
          <path class="st9" d="M190.5-115.6c8.9-3,12.9-3,12.9-3l50.5,85.3S114.7,16.8,86.2,19.7C57.6,22.7,25.1.2,24.5-35.7c-.8-50.4,81.5-171.5,122.8-218.3,19-21.5,41.1-37,46.7-33.5,6.7,4.2-5.4,31.1-11.8,51.3-11.8,37.2-53.9,146.4-53.9,146.4,0,0,51.6-22.1,62.2-25.7Z"/>
          <path class="st10" d="M255.9-33.1c-4.2-8.3-10.7-16.4-15.5-24.2-.2-.3-.6,0-.5.3,4.4,7.4,8.4,15.3,12.6,22.8-19.1,7.9-39.4,14.9-58.9,21.8-20,7.1-40.1,13.8-60.6,19.7-11.4,3.3-22.8,6.9-34.3,9.9-.7.2-.5.8.2.6,20.7-3.9,40.9-9.9,60.9-16.2,20.4-6.5,40.5-13.7,60.5-21.2,11.3-4.2,35.8-12.9,35.5-13.5Z"/>
        </g>
      </g>
    </g>
  </g>
</svg>